<svg version="1.1" xmlns="http://www.w3.org/2000/svg" viewBox="0 0 64 64" style="fill:#D0D0D0"><path d="M56.6,58.2c-16.4,0-32.8,0-49.2,0c-1-0.3-1.7-1-2-2c0-16.4,0-32.8,0-49.2c0.3-1,1-1.7,2-2c16.4,0,32.8,0,49.2,0 c1,0.3,1.7,1,2,2c0,16.4,0,32.8,0,49.2C58.3,57.3,57.6,57.9,56.6,58.2z M54.1,9.5c-14.8,0-29.5,0-44.2,0c0,14.8,0,29.5,0,44.3 c14.8,0,29.5,0,44.2,0C54.1,39,54.1,24.3,54.1,9.5z"/><path d="M18.7,31.7c0-3.6,0-7.2,0-10.8c0-1.7,0.8-2.4,2.5-2.4c7.2,0,14.5,0,21.7,0c1.6,0,2.4,0.8,2.4,2.4c0,7.2,0,14.5,0,21.7 c0,1.6-0.8,2.4-2.4,2.4c-7.2,0-14.5,0-21.7,0c-1.6,0-2.4-0.8-2.4-2.4C18.7,38.9,18.7,35.3,18.7,31.7z M23.2,22.8 c0,5.9,0,11.8,0,17.6c5.9,0,11.8,0,17.6,0c0-5.9,0-11.8,0-17.6C34.9,22.8,29.1,22.8,23.2,22.8z"/></svg>