<svg version="1.1" xmlns="http://www.w3.org/2000/svg" viewBox="0 0 612 792" style="fill:#E51B48"><path d="M267.5,406.9H77.2c-6.6,0-12-5.4-12-12V204.6c0-6.6,5.4-12,12-12h190.2c6.6,0,12,5.4,12,12v190.2 C279.5,401.5,274.1,406.9,267.5,406.9z"/><path d="M534.5,406.9H344.3c-6.6,0-12-5.4-12-12V204.6c0-6.6,5.4-12,12-12h190.2c6.6,0,12,5.4,12,12v190.2 C546.5,401.5,541.1,406.9,534.5,406.9z"/><path d="M268.2,671.3H78c-6.6,0-12-5.4-12-12V469.1c0-6.6,5.4-12,12-12h190.2c6.6,0,12,5.4,12,12v190.2 C280.2,665.9,274.8,671.3,268.2,671.3z"/><path d="M535.3,671.3H345c-6.6,0-12-5.4-12-12V469.1c0-6.6,5.4-12,12-12h190.2c6.6,0,12,5.4,12,12v190.2 C547.3,665.9,541.9,671.3,535.3,671.3z"/></svg>
