<svg version="1.1" id="Layer_1" xmlns="http://www.w3.org/2000/svg" viewBox="0 0 64 64" style="fill:#D0D0D0">
<path d="M56.6,58.6c-16.4,0-32.8,0-49.2,0c-1-0.3-1.7-1-2-2c0-16.4,0-32.8,0-49.2c0.3-1,1-1.7,2-2c16.4,0,32.8,0,49.2,0
	c1,0.3,1.7,1,2,2c0,16.4,0,32.8,0,49.2C58.3,57.6,57.6,58.3,56.6,58.6z M54.1,9.9c-14.8,0-29.5,0-44.2,0c0,14.8,0,29.5,0,44.3
	c14.8,0,29.5,0,44.2,0C54.1,39.4,54.1,24.7,54.1,9.9z"/>
<path d="M13.4,21.8c0-2.2,0-4.4,0-6.5c0-1,0.5-1.5,1.5-1.5c4.4,0,8.7,0,13.1,0c1,0,1.5,0.5,1.5,1.5c0,4.4,0,8.7,0,13.1
	c0,1-0.5,1.5-1.5,1.5c-4.4,0-8.7,0-13.1,0c-1,0-1.4-0.5-1.4-1.4C13.4,26.2,13.4,24,13.4,21.8z M16.1,16.5c0,3.6,0,7.1,0,10.6
	c3.6,0,7.1,0,10.6,0c0-3.6,0-7.1,0-10.6C23.2,16.5,19.7,16.5,16.1,16.5z"/>
<path d="M34.6,22.1c0-2.2,0-4.4,0-6.6c0-1,0.5-1.5,1.5-1.5c4.4,0,8.9,0,13.3,0c1,0,1.5,0.5,1.5,1.5c0,4.4,0,8.9,0,13.3
	c0,1-0.5,1.5-1.5,1.5c-4.4,0-8.9,0-13.3,0c-1,0-1.5-0.5-1.5-1.5C34.6,26.5,34.6,24.3,34.6,22.1z M37.3,16.7c0,3.6,0,7.2,0,10.8
	c3.6,0,7.2,0,10.8,0c0-3.6,0-7.2,0-10.8C44.5,16.7,41,16.7,37.3,16.7z"/>
<path d="M13.4,41.4c0-2.2,0-4.4,0-6.5c0-1,0.5-1.5,1.5-1.5c4.4,0,8.7,0,13.1,0c1,0,1.5,0.5,1.5,1.5c0,4.4,0,8.7,0,13.1
	c0,1-0.5,1.5-1.5,1.5c-4.4,0-8.7,0-13.1,0c-1,0-1.4-0.5-1.4-1.4C13.4,45.8,13.4,43.6,13.4,41.4z M16.1,36.1c0,3.6,0,7.1,0,10.6
	c3.6,0,7.1,0,10.6,0c0-3.6,0-7.1,0-10.6C23.2,36.1,19.7,36.1,16.1,36.1z"/>
<path d="M34.6,41.9c0-2.2,0-4.4,0-6.6c0-1,0.5-1.5,1.5-1.5c4.4,0,8.9,0,13.3,0c1,0,1.5,0.5,1.5,1.5c0,4.4,0,8.9,0,13.3
	c0,1-0.5,1.5-1.5,1.5c-4.4,0-8.9,0-13.3,0c-1,0-1.5-0.5-1.5-1.5C34.6,46.4,34.6,44.1,34.6,41.9z M37.3,36.5c0,3.6,0,7.2,0,10.8
	c3.6,0,7.2,0,10.8,0c0-3.6,0-7.2,0-10.8C44.5,36.5,41,36.5,37.3,36.5z"/>
</svg>
