<svg version="1.1" xmlns="http://www.w3.org/2000/svg"
	 viewBox="0 0 612 792" style="fill:#E51B48">
	<path d="M191.2,407.2h-114c-6.6,0-12-5.4-12-12V204.6c0-6.6,5.4-12,12-12h114c6.6,0,12,5.4,12,12v190.5
		C203.2,401.8,197.8,407.2,191.2,407.2z"/>
	<path d="M363.2,407.2h-114c-6.6,0-12-5.4-12-12V204.6c0-6.6,5.4-12,12-12h114c6.6,0,12,5.4,12,12v190.5
		C375.2,401.8,369.8,407.2,363.2,407.2z"/>
	<path d="M534.2,407.2h-114c-6.6,0-12-5.4-12-12V204.6c0-6.6,5.4-12,12-12h114c6.6,0,12,5.4,12,12v190.5
		C546.2,401.8,540.8,407.2,534.2,407.2z"/>
	<path d="M191.7,672h-114c-6.6,0-12-5.4-12-12V469.5c0-6.6,5.4-12,12-12h114c6.6,0,12,5.4,12,12V660
		C203.7,666.6,198.3,672,191.7,672z"/>
	<path d="M363.8,672h-114c-6.6,0-12-5.4-12-12V469.5c0-6.6,5.4-12,12-12h114c6.6,0,12,5.4,12,12V660
		C375.8,666.6,370.4,672,363.8,672z"/>
	<path d="M534.8,672h-114c-6.6,0-12-5.4-12-12V469.5c0-6.6,5.4-12,12-12h114c6.6,0,12,5.4,12,12V660
		C546.8,666.6,541.4,672,534.8,672z"/>

</svg>
