<svg version="1.1" xmlns="http://www.w3.org/2000/svg"
	 viewBox="0 0 612 792" style="fill:#D0D0D0">

	<path d="M191.2,330.6h-114c-6.6,0-12-5.4-12-12v-114c0-6.6,5.4-12,12-12h114c6.6,0,12,5.4,12,12v114
		C203.2,325.2,197.8,330.6,191.2,330.6z"/>
	<path d="M363.2,330.6h-114c-6.6,0-12-5.4-12-12v-114c0-6.6,5.4-12,12-12h114c6.6,0,12,5.4,12,12v114
		C375.2,325.2,369.8,330.6,363.2,330.6z"/>
	<path d="M534.2,330.6h-114c-6.6,0-12-5.4-12-12v-114c0-6.6,5.4-12,12-12h114c6.6,0,12,5.4,12,12v114
		C546.2,325.2,540.8,330.6,534.2,330.6z"/>
	<path d="M191.7,501h-114c-6.6,0-12-5.4-12-12V375c0-6.6,5.4-12,12-12h114c6.6,0,12,5.4,12,12v114C203.7,495.6,198.3,501,191.7,501z
		"/>
	<path d="M363.8,501h-114c-6.6,0-12-5.4-12-12V375c0-6.6,5.4-12,12-12h114c6.6,0,12,5.4,12,12v114C375.8,495.6,370.4,501,363.8,501z
		"/>
	<path d="M534.8,501h-114c-6.6,0-12-5.4-12-12V375c0-6.6,5.4-12,12-12h114c6.6,0,12,5.4,12,12v114C546.8,495.6,541.4,501,534.8,501z
		"/>
	<path d="M191.7,672h-114c-6.6,0-12-5.4-12-12V546c0-6.6,5.4-12,12-12h114c6.6,0,12,5.4,12,12v114C203.7,666.6,198.3,672,191.7,672z
		"/>
	<path d="M363.8,672h-114c-6.6,0-12-5.4-12-12V546c0-6.6,5.4-12,12-12h114c6.6,0,12,5.4,12,12v114C375.8,666.6,370.4,672,363.8,672z
		"/>
	<path d="M534.8,672h-114c-6.6,0-12-5.4-12-12V546c0-6.6,5.4-12,12-12h114c6.6,0,12,5.4,12,12v114C546.8,666.6,541.4,672,534.8,672z
		"/>
</svg>
