<svg version="1.1" id="Layer_1" xmlns="http://www.w3.org/2000/svg" viewBox="0 0 64 64" style="fill:#D0D0D0">
<path id="XMLID_1_" d="M22.9,29.1c10.8,6.6,16.7,16.1,17.4,28.9c0.2,0,0.4,0,0.6,0c6.1,0,12.3,0,18.4,0c0.2,0,0.3,0,0.5,0
	c0.5,0,0.9,0.4,0.9,0.9c0,0.5-0.3,0.9-0.8,1c-0.2,0-0.4,0-0.6,0c-18.3,0-36.7,0-55,0c-0.4,0-0.9-0.1-1-0.5c-0.1-0.3-0.1-0.7,0.1-1
	c4.7-8,9.5-16.1,14.3-24.1c4.5-7.6,9-15.2,13.5-22.8c0.1-0.1,0.2-0.3,0.3-0.4c0.3-0.4,0.8-0.5,1.2-0.3c0.4,0.2,0.6,0.7,0.4,1.2
	c-0.1,0.2-0.2,0.4-0.3,0.6c-3.2,5.4-6.4,10.7-9.6,16.1C23.1,28.7,23,28.9,22.9,29.1z M21.9,30.7c-5.4,9.1-10.7,18.1-16.1,27.1
	c10.9,0,21.8,0,32.6,0C38.4,47,32.2,36.2,21.9,30.7z"/>
<path d="M46.9,40.6c-2.5,0-4.7-0.8-6.8-2.1c-1.7-1-3.2-2.2-4.5-3.6c-0.3-0.3-0.3-0.6-0.1-0.9c2.2-2.2,4.7-4,7.7-5.1
	c3.3-1.1,6.4-0.7,9.4,0.9c2.1,1.1,3.9,2.4,5.6,4.1c0.3,0.3,0.3,0.6,0,0.9c-2.4,2.3-5,4.3-8.2,5.2c-1,0.3-1.9,0.4-3.1,0.5
	C47,40.6,47,40.6,46.9,40.6z M41.9,34.5c0,2.8,2.2,5.1,5,5.1c2.9,0,5.1-2.2,5.1-5.1c0-2.8-2.3-5-5-5C44.1,29.5,41.9,31.7,41.9,34.5z
	"/>
<path d="M45.1,34.5c0-1,0.8-1.8,1.8-1.8c1,0,1.9,0.8,1.9,1.9c0,1-0.8,1.8-1.9,1.8C45.9,36.4,45.1,35.5,45.1,34.5z"/>
</svg>
