<svg version="1.1" id="Layer_1" xmlns="http://www.w3.org/2000/svg" viewBox="0 0 64 64" style="fill:#E51B48" >
<path id="XMLID_744_" d="M57.4,50.7c1.4,0,2.6,0,4,0c0,3.5,0,7,0,10.5c-3.5,0-7,0-10.6,0c0-1.3,0-2.6,0-3.9c-12.4,0-24.7,0-37.1,0
	c0,1.3,0,2.6,0,3.9c-3.6,0-7.1,0-10.6,0c0-3.5,0-7,0-10.5c1.3,0,2.6,0,3.9,0c0-12.4,0-24.7,0-37.1c-1.3,0-2.6,0-3.9,0
	c0-3.6,0-7,0-10.6c3.5,0,7,0,10.6,0c0,1.3,0,2.6,0,3.9c12.4,0,24.7,0,37.1,0c0-1.3,0-2.6,0-3.9c3.6,0,7.1,0,10.6,0c0,3.5,0,7,0,10.6
	c-1.3,0-2.6,0-4,0C57.4,26,57.4,38.3,57.4,50.7z M50.8,9.6c-12.4,0-24.7,0-37.1,0c0,1.4,0,2.6,0,4c-1.3,0-2.6,0-3.9,0
	c0,12.4,0,24.7,0,37.1c1.3,0,2.6,0,4,0c0,1.4,0,2.7,0,4c12.4,0,24.7,0,37.1,0c0-1.3,0-2.6,0-4c1.3,0,2.6,0,3.9,0
	c0-12.4,0-24.7,0-37.1c-1.3,0-2.6,0-4,0C50.8,12.3,50.8,11,50.8,9.6z M53.4,11c1.8,0,3.6,0,5.4,0c0-1.8,0-3.6,0-5.4
	c-1.8,0-3.6,0-5.4,0C53.4,7.4,53.4,9.2,53.4,11z M11.1,11c0-1.8,0-3.6,0-5.4c-1.8,0-3.6,0-5.4,0c0,1.8,0,3.6,0,5.4
	C7.5,11,9.3,11,11.1,11z M53.4,53.3c0,1.8,0,3.6,0,5.4c1.8,0,3.6,0,5.4,0c0-1.8,0-3.6,0-5.4C57,53.3,55.2,53.3,53.4,53.3z M5.7,58.7
	c1.8,0,3.6,0,5.4,0c0-1.8,0-3.6,0-5.4c-1.8,0-3.6,0-5.4,0C5.7,55.1,5.7,56.9,5.7,58.7z"/>
</svg>
