<svg version="1.1" xmlns="http://www.w3.org/2000/svg" viewBox="0 0 64 64" style="fill:#E51B48" >
	<path d="M29.2,4.9c1.1,0,2.1,0,3.2,0c0.1,0,0.3,0.1,0.4,0.1c3.8,0.3,7.4,1.3,10.7,3.1c7.6,4.2,12.3,10.6,14,19.2
	c0.2,1,0.3,2,0.4,3c0,1.1,0,2.3,0,3.4c0,0.1-0.1,0.2-0.1,0.3c-0.2,3.3-1,6.5-2.5,9.5c-4.1,8.3-10.7,13.4-19.8,15.2
	c-1,0.2-2,0.3-3,0.4c-1.1,0-2.3,0-3.4,0c-0.1,0-0.2-0.1-0.3-0.1c-3.3-0.2-6.5-1-9.5-2.5C11,52.5,5.9,45.8,4.1,36.7
	c-0.2-1-0.3-2.1-0.4-3.1c0-1.1,0-2.1,0-3.2c0-0.2,0.1-0.3,0.1-0.5c0.3-3.8,1.3-7.4,3.1-10.7c4.2-7.6,10.7-12.3,19.2-13.9
	C27.2,5.1,28.2,5,29.2,4.9z M54.6,32C54.6,19,44,8.3,30.9,8.3C17.8,8.2,7.1,18.9,7.1,31.9C7,45,17.7,55.7,30.8,55.7
	C43.9,55.8,54.5,45.1,54.6,32z"/>
<path d="M30.8,21.8C36.4,21.8,41,26.4,41,32c0,5.6-4.6,10.2-10.2,10.2c-5.6,0-10.2-4.6-10.2-10.2
	C20.7,26.4,25.2,21.8,30.8,21.8z M30.8,25.2c-3.8,0-6.8,3.1-6.8,6.9c0,3.7,3.1,6.7,6.9,6.7c3.7,0,6.7-3.1,6.7-6.9
	C37.6,28.2,34.5,25.2,30.8,25.2z"/>
<path d="M34.2,32c0,1.9-1.5,3.4-3.4,3.4c-1.8,0-3.4-1.5-3.4-3.4c0-1.9,1.5-3.4,3.5-3.4C32.7,28.6,34.2,30.2,34.2,32z"
	/>
</svg>
