<svg version="1.1" id="Layer_1" xmlns="http://www.w3.org/2000/svg" viewBox="0 0 64 64" style="fill:#E51B48">
	<path d="M57.8,53c-0.2,0-0.4,0-0.7-0.1c-2.9-0.2-5.6-0.9-8.2-2.3c-5.6-3-9.2-7.6-10.8-13.8c-0.4-1.7-0.6-3.5-0.6-5.3
		c0.2-5.3,2-9.8,5.6-13.7c2.3-2.5,5-4.3,8.2-5.5c1.5-0.6,3.1-1,4.8-1.1c0.5-0.1,1-0.1,1.5-0.1c0.1,0,0.1,0,0.2,0c0.5,0,1.1,0,1.6,0
		c0.1,0,0.2,0,0.3,0c0.3,0,0.7,0,1,0.1c0,2.1,0,4.3,0,6.4c-3.8-0.5-7.3,0.3-10.4,2.4c-3.1,2.2-5.1,5.1-6,8.9c4.1,0,8.1,0,12.2,0
		c0,2.1,0,4.2,0,6.4c-4.1,0-8.1,0-12.2,0c0.4,2.2,1.7,5.2,4.3,7.6c3.4,3.1,7.4,4.3,12,3.7c0,2.1,0,4.2,0,6.4c-0.2,0-0.4,0-0.6,0
		c-0.3,0-0.5,0-0.8,0.1C58.8,53,58.3,53,57.8,53z"/>
	<path d="M23.8,11c0.3,0,0.5,0,0.8,0.1c0.2,0,0.4,0,0.6,0c0,2.1,0,4.3,0,6.4c-4.7-0.6-8.8,0.7-12.3,4
		c-3,2.8-4.4,6.4-4.4,10.5c0,4.4,1.7,8.1,5.1,11c3.3,2.9,7.3,4,11.7,3.4c0,2.1,0,4.2,0,6.4c-0.3,0-0.7,0-1,0.1c-0.1,0-0.2,0-0.3,0
		c-0.5,0-1,0-1.6,0c-0.1,0-0.1,0-0.2,0c-0.3,0-0.6,0-0.9-0.1c-1.7-0.1-3.3-0.5-4.8-1c-3-1-5.6-2.6-7.9-4.8
		c-3.8-3.7-5.9-8.3-6.3-13.6c0-0.2,0-0.5-0.1-0.7c0-0.5,0-1,0-1.6c0-0.1,0-0.1,0-0.2c0.1-1.3,0.2-2.5,0.5-3.8
		c0.7-3.2,2.2-6.1,4.3-8.6c1.5-1.8,3.2-3.3,5.2-4.5c1.4-0.8,2.8-1.5,4.3-2c1.7-0.6,3.4-0.9,5.1-1c0.2,0,0.5,0,0.7-0.1
		C22.7,11,23.3,11,23.8,11z"/>
</svg>
