<svg
   xmlns="http://www.w3.org/2000/svg"
   style="fill:#D0D0D0"
   viewBox="0 0 64 64"
   version="1.1">
  <path
     d="m 3.207512,31.805838 c 0,-8.894604 0.1560453,-17.633163 0,-26.5277674 C 3.0514667,0.9087911 6.1723801,0.1285627 9.2932935,1.8450657 25.678091,10.895715 42.062889,19.790319 58.447686,28.84097 c 2.18464,1.09232 2.808823,2.652777 2.028594,4.369279 -0.312091,0.624183 -1.09232,1.248366 -1.716503,1.716503 -16.852935,9.206695 -33.705869,18.413391 -50.5588024,27.464041 -2.8088229,1.560457 -4.9934626,0 -4.9934626,-3.27696 0,-9.050649 0,-18.1013 0,-27.307995 z m 47.749981,0.156045 C 37.069426,24.315644 23.337405,16.825451 9.605385,9.335259 c 0,15.136432 0,30.116817 0,45.253249 13.73202,-7.646239 27.464041,-15.136432 41.352108,-22.626625 z" />
</svg>
