<svg version="1.1" xmlns="http://www.w3.org/2000/svg" viewBox="0 0 64 64" style="fill:#E51B48">
<path d="M22.4,29C33.1,35.6,39,45.1,39.7,57.7c0.2,0,0.4,0,0.6,0c6.1,0,12.2,0,18.3,0c0.2,0,0.3,0,0.5,0
	c0.5,0,0.9,0.4,0.9,0.8c0,0.5-0.3,0.9-0.8,1c-0.2,0-0.4,0-0.6,0c-18.3,0-36.5,0-54.8,0c-0.4,0-0.9-0.1-1-0.5c-0.1-0.3-0.1-0.7,0.1-1
	c4.7-8,9.5-16,14.2-24c4.5-7.6,9-15.1,13.5-22.7c0.1-0.1,0.2-0.3,0.3-0.4c0.3-0.4,0.8-0.5,1.2-0.3c0.4,0.2,0.6,0.7,0.4,1.2
	c-0.1,0.2-0.2,0.4-0.3,0.6c-3.2,5.4-6.4,10.7-9.5,16.1C22.6,28.7,22.5,28.8,22.4,29z M21.4,30.7c-5.4,9-10.7,18-16.1,27
	c10.9,0,21.7,0,32.5,0C37.8,46.9,31.6,36.1,21.4,30.7z"/>
	<path id="XMLID_4_" d="M26.2,53.3c-0.6,0.3-1.7,0.6-3.2,0.6c-3.5,0-6-2.2-6-6.2c0-3.8,2.6-6.4,6.4-6.4c1.5,0,2.5,0.3,2.9,0.5
		l-0.4,1.3c-0.6-0.3-1.4-0.5-2.5-0.5c-2.9,0-4.8,1.8-4.8,5c0,3,1.7,4.9,4.7,4.9c1,0,2-0.2,2.6-0.5L26.2,53.3z"/>
</svg>
