<svg version="1.1" xmlns="http://www.w3.org/2000/svg" viewBox="0 0 64 64" style="fill:#E51B48" >
<path d="M32.2,9c7.1,0,14.2,0.1,21.3,0c4.9-0.1,7.8,3.8,7.8,7.1c-0.1,4.3-3.1,7.4-7.6,7.4c-5.1,0.1-10.3,0-15.4,0
	c-9,0-18.1,0-27.1,0c-4,0-6.7-1.8-7.8-5.2C2,13.8,5.4,9,10.2,9C17.5,9,24.9,9,32.2,9z M53.2,18.8c1.5,0,2.7-1.1,2.7-2.6
	c0-1.4-1.3-2.7-2.7-2.7c-1.4,0-2.5,1.2-2.5,2.6C50.6,17.7,51.6,18.8,53.2,18.8z"/>
<path d="M32.4,41.8c7.3,0,14.7,0,22,0c2.8,0,4.9,1.4,6.1,3.9c1.3,2.4,1.1,4.9-0.4,7.2c-1.3,2-3.3,3.2-5.8,3.2
	c-14.8,0-29.6,0-44.4,0c-3.8,0-6.8-3.1-6.9-6.9c-0.1-4.2,2.8-7.4,6.8-7.4C17.4,41.8,24.9,41.8,32.4,41.8
	C32.4,41.8,32.4,41.8,32.4,41.8z M50.6,48.9c0,1.5,1.1,2.7,2.5,2.7c1.4,0,2.7-1.2,2.7-2.6c0-1.5-1.1-2.7-2.6-2.7
	C51.8,46.3,50.6,47.4,50.6,48.9z"/>
<path d="M32.2,39.8c-7.4,0-14.7,0-22.1,0c-2.8,0-4.9-1.4-6.2-3.8c-1.3-2.4-1.2-4.9,0.3-7.2c1.4-2.1,3.3-3.3,5.9-3.3
	c14.7,0,29.4,0,44.1,0c3.9,0,7,3.1,7,6.9c0.1,4.1-2.8,7.3-6.8,7.4C47.1,39.8,39.6,39.8,32.2,39.8C32.2,39.8,32.2,39.8,32.2,39.8z
	 M53.2,29.9c-1.4,0-2.6,1.2-2.6,2.7c0,1.5,1.1,2.6,2.6,2.6c1.4,0,2.6-1.2,2.6-2.7C55.8,31.2,54.6,29.9,53.2,29.9z"/>
</svg>
