<svg version="1.1" xmlns="http://www.w3.org/2000/svg" viewBox="0 0 64 64" style="fill:#E51B48" >
<path d="M33,2.8c1.1,0.4,1.9,1,2.1,2.2c0.1,0.3,0.1,0.6,0.1,0.9c0,11.2,0,22.4,0,33.6c0,0.2,0,0.4,0,0.8
	c0.2-0.2,0.4-0.4,0.6-0.5c4.2-4.2,8.4-8.4,12.7-12.7c0.8-0.8,1.7-1.1,2.8-0.8c1.8,0.5,2.5,2.8,1.3,4.3c-0.1,0.1-0.2,0.2-0.3,0.3
	c-5.9,5.9-11.7,11.7-17.6,17.6c-0.8,0.8-1.7,1.3-2.8,0.9c-0.5-0.1-1-0.4-1.3-0.7c-5.9-5.9-11.8-11.8-17.7-17.7
	c-1.1-1.1-1.1-2.8,0-3.9c1.1-1.1,2.7-1.1,3.9,0.1c4.2,4.2,8.4,8.4,12.6,12.5c0.1,0.1,0.3,0.3,0.6,0.5c0-0.4,0-0.6,0-0.8
	c0-11.1,0-22.1,0-33.2c0-1.7,0.5-2.9,2.1-3.5C32.2,2.8,32.6,2.8,33,2.8z"/>
<path d="M11.9,61c0-2.3,0-4.5,0-6.8c13.7,0,27.3,0,41.1,0c0,2.3,0,4.5,0,6.8C39.3,61,25.6,61,11.9,61z"/>
</svg>
