<svg version="1.1" xmlns="http://www.w3.org/2000/svg" viewBox="-447 249 64 64" style="fill:#e51b48" >
<path d="M-400.3,259.9c1.2,0,2.4,0,3.5,0c2.5,0,4.1,1.6,4.1,4.2c0,13.8,0,27.6,0,41.4c0,2.7-1.6,4.3-4.2,4.3c-10,0-19.9,0-29.9,0
	c-2.7,0-4.2-1.6-4.2-4.2c0-1.1,0-2.2,0-3.4c-0.7,0-1.4,0-2.1,0c-0.8,0-1.6,0-2.4-0.1c-1.9-0.3-3.2-1.9-3.2-3.8c0-6.6,0-13.2,0-19.8
	c0-4.3,0-8.5,0-12.8c0-1.2,0.4-2.2,1.3-3.1c3-3,6-5.9,8.9-8.9c0.9-0.9,1.9-1.3,3.2-1.3c6.9,0,13.9,0,20.8,0c2.5,0,4.1,1.6,4.1,4.2
	C-400.3,257.5-400.3,258.7-400.3,259.9z M-434.9,265.6c0,0.2,0,0.4,0,0.5c0,10.3,0,20.7,0,31c0,0.8,0.3,1.2,1.2,1.2
	c9.4,0,18.9,0,28.3,0c0.9,0,1.2-0.3,1.2-1.2c0-13.3,0-26.5,0-39.8c0-0.9-0.3-1.2-1.3-1.2c-6.4,0-12.8,0-19.2,0c-0.2,0-0.4,0-0.7,0
	c0,1.9,0,3.7,0,5.5c0,2.2-1.3,3.7-3.4,4c-0.7,0.1-1.4,0-2.1,0C-432.1,265.6-433.5,265.6-434.9,265.6z M-400.3,263.7c0,0.4,0,0.7,0,1
	c0,11,0,22.1,0,33.1c0,0.5,0,1.1-0.2,1.6c-0.5,1.7-2,2.7-3.8,2.7c-7.4,0-14.7,0-22.1,0c-0.2,0-0.5,0-0.8,0c0,0.9,0,1.7,0,2.6
	c0,1,0.3,1.3,1.3,1.3c9.3,0,18.7,0,28,0c1.2,0,1.4-0.2,1.4-1.4c0-13.2,0-26.3,0-39.5c0-0.2,0-0.3,0-0.5c-0.1-0.5-0.4-0.8-0.9-0.8
	C-398.3,263.7-399.3,263.7-400.3,263.7z"/>
<path d="M-421.3,274.9c-0.2,0.7-0.4,1.5-0.5,2.2c-0.4,1.7-0.8,3.4-1.3,5.1c-0.1,0.5-0.4,0.7-0.8,0.7c-0.4,0-0.7-0.2-0.8-0.7
	c-0.3-1.2-0.6-2.4-0.9-3.6c0-0.1,0-0.1-0.1-0.2c0,0,0,0,0,0c-0.3,1-0.3,1-1.4,1c-1.5,0-3,0-4.5,0c-0.4,0-0.7-0.3-0.8-0.7
	c-0.1-0.4,0.2-0.7,0.6-0.8c0.1,0,0.2,0,0.3,0c1.3,0,2.6,0,3.9,0c0.1,0,0.2,0,0.4,0c0.2-0.7,0.4-1.4,0.5-2.1c0.1-0.3,0.1-0.5,0.2-0.8
	c0.1-0.4,0.4-0.6,0.8-0.6c0.4,0,0.6,0.2,0.7,0.6c0.3,1.2,0.6,2.4,0.9,3.6c0,0.1,0.1,0.2,0.1,0.4c0.2-0.7,0.4-1.4,0.5-2
	c0.4-1.8,0.9-3.6,1.3-5.3c0.1-0.5,0.4-0.7,0.8-0.7c0.4,0,0.7,0.2,0.8,0.7c0.9,3.5,1.7,7,2.6,10.5c0,0.1,0.1,0.2,0.1,0.4
	c0-0.1,0.1-0.2,0.1-0.3c0.6-2.3,1.2-4.7,1.8-7c0.1-0.3,0.2-0.6,0.5-0.7c0.4-0.2,0.9,0.1,1,0.6c0.3,1.2,0.6,2.5,0.9,3.7
	c0,0.1,0,0.1,0.1,0.2c0-0.1,0.1-0.2,0.1-0.4c0.1-0.4,0.4-0.6,0.8-0.6c1.7,0,3.3,0,5,0c0.5,0,0.8,0.3,0.8,0.7c0,0.4-0.3,0.8-0.8,0.8
	c-1.4,0-2.7,0-4.1,0c-0.1,0-0.2,0-0.3,0c-0.2,0.9-0.5,1.9-0.7,2.8c-0.1,0.5-0.4,0.7-0.8,0.7c-0.4,0-0.7-0.2-0.8-0.7
	c-0.3-1.3-0.6-2.5-1-3.8c-0.1,0.6-0.3,1.2-0.4,1.7c-0.5,1.9-0.9,3.7-1.4,5.6c-0.1,0.5-0.4,0.7-0.8,0.7c-0.4,0-0.6-0.2-0.7-0.7
	c-0.9-3.5-1.7-7-2.6-10.5C-421.2,275.1-421.2,275-421.3,274.9C-421.2,274.9-421.3,274.9-421.3,274.9z"/>
</svg>
