<svg version="1.1" xmlns="http://www.w3.org/2000/svg" viewBox="-447 249 64 64" style="fill:#D0D0D0">
<path d="M-392.5,280.6c0,8.1,0,16.2,0,24.3c0,2.6-1.8,4.3-4.3,4.3c-12.1,0-24.1,0-36.2,0c-2.8,0-4.5-1.7-4.5-4.4
	c0-12.9,0-25.7,0-38.6c0-1.3,0.4-2.3,1.3-3.2c3.2-3.2,6.5-6.4,9.7-9.7c0.9-0.9,1.9-1.3,3.2-1.3c8.8,0,17.6,0,26.4,0
	c2.6,0,4.3,1.7,4.3,4.4C-392.5,264.5-392.5,272.5-392.5,280.6z M-423.1,256.1c0,0.1-0.1,0.2-0.1,0.2c0,1.9,0,3.8,0,5.7
	c0,2.6-1.8,4.3-4.3,4.3c-1.7,0-3.4,0-5.2,0c-0.2,0-0.4,0-0.7,0c0,0.3,0,0.6,0,0.8c0,12.2,0,24.5,0,36.7c0,1.1,0.3,1.4,1.4,1.4
	c11.3,0,22.7,0,34,0c1.3,0,1.5-0.3,1.5-1.5c0-15.4,0-30.8,0-46.2c0-1.1-0.3-1.4-1.4-1.4c-8.2,0-16.3,0-24.5,0
	C-422.7,256.1-422.9,256.1-423.1,256.1z"/>
<path d="M-417.8,275.3c-0.2,0.8-0.4,1.7-0.6,2.5c-0.5,1.9-1,3.9-1.4,5.8c-0.1,0.5-0.4,0.8-0.9,0.8c-0.4,0-0.7-0.3-0.9-0.8
	c-0.3-1.4-0.7-2.7-1-4.1c0-0.1,0-0.1-0.1-0.2c0,0,0,0,0,0c-0.4,1.1-0.4,1.1-1.6,1.1c-1.7,0-3.4,0-5.1,0c-0.5,0-0.8-0.3-0.9-0.7
	c-0.1-0.4,0.2-0.8,0.6-0.9c0.1,0,0.3,0,0.4,0c1.5,0,3,0,4.5,0c0.1,0,0.3,0,0.4,0c0.2-0.8,0.4-1.6,0.6-2.4c0.1-0.3,0.1-0.6,0.2-0.9
	c0.1-0.5,0.4-0.7,0.9-0.7c0.4,0,0.7,0.3,0.9,0.7c0.3,1.3,0.7,2.7,1,4c0,0.1,0.1,0.2,0.1,0.4c0.2-0.8,0.4-1.6,0.6-2.3
	c0.5-2,1-4,1.5-6.1c0.1-0.5,0.4-0.8,0.9-0.8c0.5,0,0.8,0.3,0.9,0.8c1,4,2,7.9,3,11.9c0,0.1,0.1,0.2,0.1,0.4c0.1-0.1,0.1-0.2,0.1-0.3
	c0.7-2.7,1.3-5.3,2-8c0.1-0.3,0.2-0.6,0.6-0.8c0.5-0.2,1,0.1,1.2,0.6c0.4,1.4,0.7,2.8,1.1,4.2c0,0.1,0,0.1,0.1,0.2
	c0-0.1,0.1-0.3,0.1-0.4c0.1-0.5,0.4-0.7,0.9-0.7c1.9,0,3.8,0,5.6,0c0.5,0,0.9,0.4,0.9,0.8c0,0.5-0.4,0.9-0.9,0.9c-1.5,0-3.1,0-4.6,0
	c-0.1,0-0.3,0-0.4,0c-0.3,1.1-0.5,2.1-0.8,3.2c-0.1,0.5-0.4,0.8-0.9,0.8c-0.4,0-0.7-0.3-0.9-0.8c-0.4-1.4-0.7-2.9-1.1-4.3
	c-0.2,0.7-0.3,1.3-0.5,2c-0.5,2.1-1.1,4.2-1.6,6.3c-0.1,0.5-0.4,0.8-0.9,0.8c-0.4,0-0.7-0.3-0.8-0.8c-1-4-2-7.9-3-11.9
	C-417.7,275.5-417.7,275.4-417.8,275.3C-417.7,275.3-417.8,275.3-417.8,275.3z"/>
	<path d="M-421.2,297.2h-3.8v2.5h4.2v1.9h-6.6v-10.3h6.4v1.9h-4v2.1h3.8V297.2z"/>
	<path d="M-411.6,301.3c-0.4,0.2-1.4,0.4-2.6,0.4c-3.6,0-5.4-2.2-5.4-5.2c0-3.5,2.5-5.5,5.6-5.5c1.2,0,2.1,0.2,2.5,0.5l-0.5,1.8
		c-0.5-0.2-1.1-0.4-2-0.4c-1.8,0-3.3,1.1-3.3,3.4c0,2.1,1.2,3.4,3.3,3.4c0.7,0,1.5-0.1,2-0.3L-411.6,301.3z"/>
	<path d="M-401.9,301.1c-0.7,0.2-2.1,0.6-3.5,0.6c-1.9,0-3.3-0.5-4.2-1.4c-0.9-0.9-1.5-2.3-1.5-3.8c0-3.4,2.5-5.4,5.9-5.4
		c1.3,0,2.4,0.3,2.9,0.5l-0.5,1.9c-0.6-0.3-1.3-0.4-2.4-0.4c-1.9,0-3.4,1.1-3.4,3.3c0,2.1,1.3,3.4,3.3,3.4c0.5,0,1-0.1,1.1-0.1v-2.2
		h-1.6v-1.8h3.8V301.1z"/>
</svg>
