<svg version="1.1" xmlns="http://www.w3.org/2000/svg" viewBox="-447 249 64 64" style="fill:#E51B48" >
<path d="M-419.2,272.3c-0.4,1.7-0.9,3.4-1.3,5.1c-1,3.9-2,7.9-2.9,11.8c-0.3,1.1-0.9,1.6-1.8,1.6c-0.9,0-1.5-0.5-1.8-1.6
	c-0.7-2.8-1.4-5.6-2.1-8.3c0-0.2-0.1-0.3-0.2-0.5c-0.1,0-0.1,0-0.1,0c-0.7,2.3-0.7,2.3-3.2,2.3c-3.5,0-7,0-10.4,0
	c-1,0-1.7-0.6-1.8-1.5c-0.1-0.9,0.4-1.7,1.3-1.9c0.3-0.1,0.5-0.1,0.8-0.1c3,0,6.1,0,9.1,0c0.3,0,0.5,0,0.9,0
	c0.4-1.6,0.8-3.2,1.2-4.9c0.1-0.6,0.3-1.2,0.4-1.8c0.3-0.9,0.9-1.5,1.7-1.5c0.8,0,1.5,0.5,1.7,1.5c0.7,2.8,1.4,5.5,2.1,8.3
	c0.1,0.2,0.1,0.5,0.2,0.9c0.4-1.7,0.8-3.2,1.2-4.7c1-4.1,2.1-8.2,3.1-12.4c0.3-1.1,0.9-1.6,1.8-1.7c0.9,0,1.5,0.5,1.8,1.7
	c2,8.1,4,16.2,6.1,24.2c0.1,0.2,0.1,0.5,0.2,0.8c0.1-0.3,0.2-0.5,0.2-0.6c1.4-5.4,2.7-10.9,4.1-16.3c0.2-0.7,0.5-1.3,1.2-1.6
	c1-0.4,2.1,0.1,2.4,1.3c0.7,2.8,1.4,5.7,2.2,8.5c0,0.1,0.1,0.3,0.3,0.4c0.1-0.3,0.1-0.6,0.2-0.8c0.3-1,0.9-1.4,1.8-1.4
	c3.8,0,7.7,0,11.5,0c1.1,0,1.8,0.7,1.9,1.7c0,1-0.8,1.8-1.9,1.8c-3.1,0-6.3,0-9.4,0c-0.3,0-0.5,0-0.8,0c-0.6,2.2-1.1,4.3-1.6,6.5
	c-0.3,1.1-0.9,1.6-1.8,1.6c-0.9,0-1.5-0.6-1.8-1.6c-0.7-2.9-1.5-5.9-2.3-8.8c-0.3,1.3-0.7,2.7-1,4c-1.1,4.3-2.2,8.6-3.2,12.9
	c-0.3,1-0.9,1.6-1.8,1.6c-0.9,0-1.5-0.6-1.7-1.6c-2-8.1-4.1-16.2-6.1-24.3c-0.1-0.2-0.1-0.5-0.2-0.7
	C-419.1,272.3-419.1,272.3-419.2,272.3z"/>
</svg>
