<svg version="1.1" xmlns="http://www.w3.org/2000/svg" viewBox="0 0 64 64" style="fill:#E51B48">
<path d="M24.2,43c-3.6,0-7-1-10.1-2.7c-4-2.1-7.4-4.9-10.4-8.2c-0.5-0.6-0.5-1.2,0-1.8c3.7-4.1,8-7.5,13.2-9.5
	c2.7-1.1,5.5-1.6,8.4-1.4c3.3,0.2,6.3,1.1,9.2,2.6c4,2.1,7.4,4.9,10.4,8.2c0.5,0.6,0.5,1.2,0,1.8c-3.4,3.9-7.4,7-12.2,9.1
	C30,42.3,27.2,43,24.2,43z M32.8,31.2c0-4.7-3.8-8.5-8.5-8.5c-4.7,0-8.6,3.8-8.6,8.5c0,4.7,3.8,8.5,8.5,8.6
	C29,39.7,32.8,35.9,32.8,31.2z"/>
<path d="M24.3,27.3c2.2,0,3.9,1.8,3.9,3.9c0,2.2-1.8,3.9-4,3.9c-2.2,0-3.9-1.8-3.9-4C20.4,29,22.2,27.3,24.3,27.3z"
	/>
<rect x="46.2" y="25.2" class="st0" width="27.5" height="17.4"/>
<text transform="matrix(1 0 0 1 46.1763 40.7054)" class="st1 st2">H</text>
</svg>
