<svg version="1.1" xmlns="http://www.w3.org/2000/svg" viewBox="-447 249 64 64" style="fill:#D0D0D0">
<path id="XMLID_1_" d="M-418,258c6.3,0,12.6,0,18.8,0c2.9,0,5.1,1.4,5.9,3.8c0.5,1.5,0.3,2.9-0.3,4.3c-0.8,1.9-2,3.4-3.4,4.8
	c-2.3,2.2-4.6,4.4-6.8,6.7c-1.3,1.3-2.5,2.7-3.7,4.2c-1.6,2-2.4,4.3-2.4,7c0.1,5.1,0,10.2,0,15.2c0,2.6-2,3.9-4.3,2.7
	c-3.4-1.7-6.8-3.4-10.2-5.1c-1.3-0.6-1.9-1.6-1.8-3c0-3.1-0.1-6.2,0-9.3c0.1-3.3-1-6.2-3.2-8.5c-2.7-3-5.6-5.8-8.4-8.7
	c-1.3-1.3-2.5-2.7-3.7-4.2c-0.9-1.1-1.4-2.5-1.5-4c-0.2-3,1.8-5.6,4.9-5.8c2.6-0.2,5.2-0.1,7.8-0.1C-426.2,258-422.1,258-418,258
	C-418,258-418,258-418,258z M-398.5,263.6c-13.1,0-26.2,0-39.2,0c-0.1,0.1-0.1,0.1-0.2,0.2c0.6,0.9,1.2,1.8,1.9,2.5
	c1.5,1.6,3.1,3.1,4.7,4.7c2.7,2.6,5.4,5.2,7.5,8.3c1.9,2.8,3,5.9,2.9,9.3c0,2.2,0.1,4.5,0,6.7c-0.1,1.6,0.3,2.4,1.8,3
	c1.2,0.4,2.4,1.1,3.7,1.8c0-0.4,0-0.7,0-1c0-3.4,0.1-6.7,0-10.1c-0.1-4,1.1-7.6,3.6-10.7c1.7-2.1,3.6-4.1,5.6-6.1
	c1.8-1.8,3.7-3.6,5.5-5.4C-399.8,265.9-398.9,264.9-398.5,263.6z"/>
</svg>
