<svg version="1.1" xmlns="http://www.w3.org/2000/svg" viewBox="0 0 64 64" style="fill:#D0D0D0">
<path d="M42,60.1c-0.1,0-0.2-0.1-0.3-0.1c-1.4-0.5-2.2-1.6-2.2-3.1c0-2.3,0-4.7,0-7c0-10.5,0-21.1,0-31.6
	c0-0.3,0-0.6,0-0.9c-0.3,0-0.6,0-0.8,0c-1.6,0-3.1,0-4.7,0c-0.6,0-1.1-0.1-1.4-0.7c-0.3-0.6-0.2-1.1,0.2-1.6
	c2.9-3.9,5.7-7.9,8.6-11.8c0.7-1,1.7-1,2.4,0c2.8,3.9,5.7,7.8,8.5,11.7c0.5,0.6,0.5,1.3,0.1,1.8c-0.3,0.4-0.7,0.5-1.2,0.5
	c-1.6,0-3.2,0-4.7,0c-0.2,0-0.5,0-0.8,0c0,0.3-0.1,0.6-0.1,0.8c0,12.5,0,25,0,37.5c0,0.5,0,1-0.1,1.6c-0.1,1.4-0.9,2.2-2.2,2.7
	c-0.1,0-0.2,0.1-0.3,0.1C42.8,60.1,42.4,60.1,42,60.1z"/>
<path d="M21.2,60.1c-0.5-0.2-0.8-0.5-1.1-0.9c-2.8-3.8-5.5-7.6-8.3-11.5c-0.2-0.2-0.3-0.5-0.4-0.7
	c-0.2-0.9,0.3-1.7,1.3-1.7c1.5,0,3.1,0,4.6,0c0.3,0,0.6,0,1,0c0-0.3,0.1-0.6,0.1-0.9c0-8.9,0-17.8,0-26.7c0-3.9,0-7.8,0-11.7
	c0-1,0.2-1.9,0.9-2.6c0.9-0.9,1.9-1.2,3.1-0.8c1.1,0.4,1.9,1.2,2.1,2.4c0.1,0.4,0.1,0.8,0.1,1.3c0,12.5,0,25.1,0,37.6
	c0,0.4,0,0.8,0,1.3c0.3,0,0.6,0,0.8,0c1.6,0,3.1,0,4.7,0c0.6,0,1,0.1,1.3,0.6c0.3,0.6,0.2,1.1-0.2,1.6c-2.9,3.9-5.7,7.9-8.6,11.8
	c-0.2,0.3-0.6,0.5-0.9,0.7C21.5,60.1,21.4,60.1,21.2,60.1z"/>
</svg>
