<svg version="1.1" xmlns="http://www.w3.org/2000/svg" viewBox="0 0 64 64" style="fill:#E51B48">
<path d="M32,40.6c-4.7,0-8.5-3.9-8.5-8.6c0-4.7,3.9-8.6,8.6-8.6c4.7,0,8.5,3.9,8.5,8.6C40.6,36.8,36.7,40.6,32,40.6z"
	/>
<path d="M57.7,23.4c-1.9,0-3.8,0-5.7,0c0-3.8,0-7.5,0-11.4c-3.8,0-7.6,0-11.4,0c0-1.9,0-3.8,0-5.7c0.2,0,0.5,0,0.7,0
	c3.5,0,7,0,10.5,0c3.4,0,5.9,2.5,5.9,5.9c0,3.5,0,7.1,0,10.6C57.7,23,57.7,23.2,57.7,23.4z"/>
<path d="M6.3,40.6c1.9,0,3.8,0,5.7,0c0,3.8,0,7.5,0,11.4c3.8,0,7.6,0,11.4,0c0,1.9,0,3.8,0,5.7c-0.2,0-0.4,0-0.6,0
	c-3.5,0-7.1,0-10.6,0c-3.4,0-5.9-2.5-5.9-5.9c0-3.5,0-7,0-10.5C6.3,41.1,6.3,40.9,6.3,40.6z"/>
<path d="M12,12c0,3.9,0,7.6,0,11.4c-1.9,0-3.8,0-5.7,0c0-0.2,0-0.5,0-0.7c0-3.5,0-6.9,0-10.4c0-3.6,2.4-6,6-6
	c3.7,0,7.4,0,11.1,0c0,1.9,0,3.8,0,5.7C19.6,12,15.9,12,12,12z"/>
<path d="M40.6,57.7c0-1.9,0-3.8,0-5.7c3.8,0,7.5,0,11.4,0c0-3.8,0-7.6,0-11.4c1.9,0,3.8,0,5.8,0c0,0.2,0,0.5,0,0.7
	c0,3.5,0,7,0,10.4c0,3.5-2.5,6-5.9,6C48.1,57.7,44.4,57.7,40.6,57.7z"/>
</svg>
