<svg version="1.1" xmlns="http://www.w3.org/2000/svg" viewBox="0 0 64 64" style="fill:#D0D0D0" >
<path d="M32.3,29.8c-7.3,0-14.7,0-22,0c-2,0-2.8-0.8-2.8-2.8c0-7.2,0-14.5,0-21.7c0-1.4,0.6-2.3,1.9-2.5
	c0.6-0.1,1.2,0.1,1.7,0.4c7.2,3.6,14.4,7.2,21.6,10.8c7.6,3.8,15.2,7.6,22.8,11.5c1.4,0.7,1.9,1.6,1.5,2.9c-0.3,1-1.1,1.5-2.4,1.5
	c-2.3,0-4.7,0-7,0C42.5,29.8,37.4,29.8,32.3,29.8C32.3,29.8,32.3,29.8,32.3,29.8z M12,25.3c11.1,0,22.1,0,33.2,0c0,0,0-0.1,0-0.1
	C34.1,19.6,23.1,14.1,12,8.5C12,14.1,12,19.7,12,25.3z"/>
<path d="M31.7,33.5c5.1,0,10.2,0,15.3,0c2.3,0,4.7,0,7,0c1.3,0,2.1,0.5,2.4,1.5c0.4,1.2-0.1,2.2-1.5,2.9
	c-7.6,3.8-15.2,7.6-22.8,11.5c-7.2,3.6-14.4,7.2-21.6,10.8c-0.5,0.3-1.2,0.4-1.7,0.4c-1.2-0.2-1.9-1.1-1.9-2.5c0-7.2,0-14.5,0-21.7
	c0-2,0.8-2.8,2.8-2.8C17,33.5,24.4,33.5,31.7,33.5C31.7,33.5,31.7,33.5,31.7,33.5z"/>
</svg>
