<svg version="1.1" xmlns="http://www.w3.org/2000/svg" viewBox="0 0 64 64" style="fill:#E51B48" >
<path d="M44.6,60.8c-4.7,0-9.4,0-14,0c-0.5,0-1-0.2-1.5-0.4c-0.5-0.3-0.6-0.9-0.6-1.5c0-4.6,0-9.1,0-13.7
	c0-1.3,0-2.6,0-3.9c0-0.8,0.2-1.4,0.9-1.7c0.7-0.4,1.3-0.3,2,0.1c5.5,3.4,11,6.9,16.5,10.3c4,2.5,8,5,12,7.5
	c0.9,0.6,1.2,1.3,0.9,2.2c-0.2,0.7-0.7,1.1-1.4,1.2c-0.3,0-0.5,0-0.8,0C53.9,60.8,49.2,60.8,44.6,60.8z"/>
<path d="M24.8,41c0,5.9,0,11.7,0,17.6c0,1.6-0.6,2.2-2.3,2.2c-5.8,0-11.6,0-17.4,0c-1.1,0-1.9-0.5-2-1.5
	c-0.1-0.4,0.1-1,0.3-1.4c2.9-5.8,5.8-11.5,8.7-17.3c3.1-6.1,6.1-12.2,9.2-18.2c0.6-1.1,1.3-1.5,2.3-1.2c0.8,0.3,1.2,0.9,1.2,1.9
	c0,1.9,0,3.7,0,5.6C24.8,32.9,24.8,37,24.8,41C24.8,41,24.8,41,24.8,41z M21.2,57.3c0-8.9,0-17.7,0-26.5c0,0-0.1,0-0.1,0
	c-4.4,8.8-8.9,17.7-13.3,26.5C12.3,57.3,16.8,57.3,21.2,57.3z"/>
<path d="M34.5,17.8c0.2,0.1,0.4,0.2,0.5,0.4c2.4,2.4,4.7,4.7,7.1,7.1c0.6,0.5,0.8,1.2,0.5,1.9
	c-0.4,1.1-1.6,1.6-2.6,0.9c-0.2-0.1-0.3-0.3-0.5-0.4c-3.5-3.5-7-7-10.4-10.4c-0.5-0.5-0.8-1.1-0.6-1.9c0.1-0.3,0.3-0.7,0.5-1
	c3.5-3.6,7.1-7.1,10.6-10.7c0.8-0.8,1.9-0.8,2.6-0.1C43,4.4,43,5.5,42.2,6.3c-2.4,2.4-4.8,4.8-7.1,7.1c-0.1,0.1-0.3,0.3-0.5,0.5
	c0.9,0,1.7,0.1,2.5,0.1c3.3,0.2,6.5,0.7,9.6,2.1c5,2.2,8,6.1,9.4,11.3c0.9,3.3,1.2,6.7,1.1,10.1c0,0.9-0.8,1.6-1.7,1.6
	c-1,0-1.8-0.6-1.8-1.6c-0.1-1.4-0.1-2.9-0.2-4.3c-0.2-2.7-0.8-5.4-2-7.9c-1.7-3.5-4.6-5.6-8.3-6.7c-2.7-0.8-5.5-1.1-8.3-1.1
	c-0.1,0-0.2,0-0.3,0C34.6,17.6,34.6,17.7,34.5,17.8z"/>
</svg>
