<svg version="1.1" xmlns="http://www.w3.org/2000/svg" viewBox="0 0 64 64" style="fill:#D0D0D0" >
<path d="M30.1,31.4c0,7.3,0,14.7,0,22c0,2-0.8,2.8-2.8,2.8c-7.2,0-14.5,0-21.7,0c-1.4,0-2.3-0.6-2.5-1.9
	c-0.1-0.6,0.1-1.2,0.4-1.7C7,45.4,10.6,38.2,14.3,31c3.8-7.6,7.6-15.2,11.5-22.8c0.7-1.4,1.6-1.9,2.9-1.5c1,0.3,1.5,1.1,1.5,2.4
	c0,2.3,0,4.7,0,7C30.1,21.2,30.1,26.3,30.1,31.4C30.1,31.4,30.1,31.4,30.1,31.4z M25.6,51.7c0-11.1,0-22.1,0-33.2c0,0-0.1,0-0.1,0
	C20,29.5,14.4,40.6,8.8,51.7C14.5,51.7,20,51.7,25.6,51.7z"/>
<path d="M33.9,31.9c0-5.1,0-10.2,0-15.3c0-2.3,0-4.7,0-7c0-1.3,0.5-2.1,1.5-2.4c1.2-0.4,2.2,0.1,2.9,1.5
	c3.8,7.6,7.6,15.2,11.5,22.8c3.6,7.2,7.2,14.4,10.8,21.6c0.3,0.5,0.4,1.2,0.4,1.7c-0.2,1.2-1.1,1.9-2.5,1.9c-7.2,0-14.5,0-21.7,0
	c-2,0-2.8-0.8-2.8-2.8C33.9,46.6,33.9,39.3,33.9,31.9C33.9,31.9,33.9,31.9,33.9,31.9z"/>
</svg>
