<svg version="1.1" xmlns="http://www.w3.org/2000/svg" viewBox="0 0 64 64" style="fill:#E51B48">
<path d="M19.3,60.8c-4.7,0-9.4,0-14.1,0c-0.6,0-1.2-0.1-1.7-0.6c-0.8-0.9-0.6-2.1,0.5-2.8c3.2-2,6.3-4,9.5-5.9
	c6.4-4,12.7-7.9,19.1-11.9c0.4-0.2,0.8-0.4,1.2-0.4c1,0,1.7,0.7,1.7,1.7c0,6.1,0,12.1,0,18.2c0,1-0.7,1.7-1.6,1.7
	c-0.7,0-1.5,0-2.2,0C27.7,60.8,23.5,60.8,19.3,60.8z"/>
<path d="M39.4,40.9c0-5.8,0-11.6,0-17.5c0-0.2,0-0.5,0-0.7c0.1-0.9,0.6-1.5,1.3-1.7c0.9-0.2,1.6,0.1,2.1,1
	c1,2,2,4,3,6.1c5,9.9,10,19.9,15,29.8c0.2,0.4,0.4,1,0.3,1.4c-0.1,0.9-0.8,1.5-1.8,1.5c-6,0-12.1,0-18.1,0c-1.1,0-1.8-0.8-1.8-2
	c0-2.7,0-5.5,0-8.2C39.4,47.4,39.4,44.2,39.4,40.9z M56.5,57.3c-4.5-8.9-8.9-17.8-13.4-26.7c0,0-0.1,0-0.1,0.1c0,8.9,0,17.7,0,26.6
	C47.5,57.3,51.9,57.3,56.5,57.3z"/>
<path d="M29.6,13.7c-0.2-0.2-0.3-0.4-0.5-0.5c-2.4-2.4-4.7-4.7-7.1-7.1c-0.4-0.4-0.7-0.9-0.7-1.5
	c0-0.8,0.4-1.3,1.1-1.6c0.7-0.3,1.3-0.2,1.9,0.3c0.5,0.5,1,1,1.5,1.4c3.1,3.1,6.2,6.2,9.3,9.3c1,1,1,1.9,0,2.9
	c-3.5,3.5-7,7-10.5,10.5c-0.4,0.4-0.9,0.7-1.6,0.7c-0.7-0.1-1.3-0.5-1.5-1.2c-0.2-0.7-0.1-1.4,0.5-2c2.4-2.4,4.8-4.8,7.1-7.1
	c0.1-0.1,0.3-0.3,0.6-0.5c-0.2-0.1-0.3-0.1-0.4-0.1c-2.9,0-5.8,0.3-8.7,1.2c-5.1,1.5-8.1,5-9.3,10.1c-0.7,2.8-0.9,5.7-0.9,8.6
	c0,0.7-0.3,1.3-1,1.7c-0.6,0.3-1.3,0.3-1.9-0.1c-0.5-0.3-0.7-0.8-0.7-1.4c0-4.4,0.4-8.8,2.1-12.9c2.1-5,6-8,11.1-9.5
	c2.3-0.7,4.7-1,7.2-1.1C28,13.8,28.7,13.7,29.6,13.7z"/>
</svg>
