<svg version="1.1" xmlns="http://www.w3.org/2000/svg" viewBox="0 0 64 64" style="fill:#E51B48">
<path d="M3.9,61.3c0-19,0-38,0-57c19,0,38,0,57,0c0,19,0,38,0,57C41.8,61.3,22.9,61.3,3.9,61.3z M7.6,8
	c0,16.5,0,33,0,49.5c16.5,0,33,0,49.4,0c0-16.5,0-33,0-49.5C40.6,8,24.1,8,7.6,8z"/>
<path d="M18.7,42.7c3.3-3.3,6.5-6.5,9.7-9.7c-3.3-3.3-6.6-6.6-10-10c-0.7,0.7-1.5,1.5-2.3,2.3
	c-0.4,0.4-0.7,0.6-1.3,0.5c-0.5-0.2-0.7-0.6-0.8-1.1c-0.5-3.3-1.1-6.6-1.6-10c-0.2-1.2,0.4-1.7,1.5-1.5c3.3,0.5,6.6,1,9.9,1.6
	c0.5,0.1,1,0.3,1.2,0.8c0.2,0.6-0.1,0.9-0.5,1.3c-0.8,0.8-1.6,1.5-2.3,2.3c3.4,3.4,6.7,6.7,10,10c3.3-3.2,6.6-6.5,10-9.9
	c-0.7-0.7-1.4-1.3-2.1-2c-0.4-0.4-1-0.8-0.7-1.6c0.3-0.8,1-0.7,1.6-0.8c3.1-0.5,6.2-1,9.3-1.5c0.4-0.1,0.8-0.1,1.1,0.1
	c0.6,0.2,0.7,0.8,0.6,1.3c-0.3,2-0.6,3.9-0.9,5.9c-0.2,1.4-0.5,2.8-0.7,4.2c-0.1,0.5-0.3,0.8-0.8,1c-0.5,0.2-0.9,0-1.2-0.4
	c-0.8-0.8-1.6-1.7-2.3-2.4c-3.4,3.4-6.7,6.7-10,10c3.1,3.1,6.3,6.3,9.6,9.6c0.4-0.4,0.9-0.9,1.4-1.4c0.4-0.4,0.7-0.7,1.1-1.1
	c0.8-0.7,1.7-0.4,1.9,0.6c0.4,2.1,0.7,4.2,1,6.2c0.2,1.2,0.4,2.5,0.6,3.7c0.2,1.3-0.3,1.9-1.7,1.7c-3.1-0.5-6.3-1-9.4-1.5
	c-0.2,0-0.3-0.1-0.5-0.1c-1-0.2-1.3-1.2-0.6-1.9c0.7-0.7,1.3-1.4,2-2c0.1-0.1,0.3-0.3,0.4-0.4c-3.3-3.3-6.5-6.5-9.7-9.7
	c-3.1,3.1-6.3,6.3-9.7,9.7c0.6,0.5,1.1,1.1,1.7,1.6c0.3,0.3,0.6,0.6,0.9,0.9c0.6,0.7,0.4,1.7-0.6,1.8c-1.5,0.3-3.1,0.5-4.6,0.8
	c-1.8,0.3-3.6,0.6-5.4,0.8c-0.1,0-0.1,0-0.2,0c-1.2,0.2-1.7-0.4-1.6-1.6c0.2-1.1,0.4-2.2,0.5-3.3c0.3-2.1,0.7-4.2,1-6.3
	c0-0.2,0.1-0.3,0.1-0.5c0.2-1,1.2-1.3,1.9-0.6C17,41,17.8,41.9,18.7,42.7z"/>
</svg>
