<svg version="1.1" xmlns="http://www.w3.org/2000/svg" viewBox="0 0 64 64" style="fill:#D0D0D0">
<path d="M34.3,54.2c-0.3-0.2-0.6-0.2-0.8-0.4c-1.2-0.8-2.4-1.6-3.6-2.5c-0.2-0.2-0.4-0.2-0.7-0.1
	c-0.7,0.3-1.5,0.6-2.2,0.9c-0.3,0.1-0.4,0.3-0.5,0.5c-0.2,1.4-0.5,2.7-0.8,4.1c-0.2,1-0.5,1.2-1.5,1.2c-1.5,0-2.9,0-4.4,0
	c-0.8,0-1.1-0.3-1.3-1.1c-0.3-1.4-0.6-2.9-0.8-4.3c-0.1-0.3-0.2-0.4-0.5-0.5c-0.7-0.3-1.4-0.5-2-0.9c-0.3-0.1-0.5-0.1-0.7,0.1
	c-1.2,0.8-2.3,1.6-3.5,2.4c-0.7,0.5-1.1,0.5-1.8-0.1c-1-1-2.1-2.1-3.1-3.1c-0.6-0.6-0.6-1-0.1-1.7c0.8-1.2,1.6-2.3,2.4-3.5
	c0.2-0.3,0.2-0.5,0.1-0.8C8.2,43.7,8,43,7.6,42.3c-0.1-0.2-0.3-0.4-0.5-0.4c-1.5-0.3-2.9-0.6-4.4-0.8c-0.7-0.1-1-0.5-1-1.2
	c0-1.6,0-3.1,0-4.7c0-0.7,0.3-1.1,1-1.2c1.4-0.3,2.8-0.6,4.3-0.8c0.4-0.1,0.5-0.2,0.7-0.5c0.2-0.7,0.5-1.4,0.8-2
	c0.1-0.3,0.1-0.5-0.1-0.8c-0.8-1.2-1.6-2.4-2.5-3.6c-0.4-0.7-0.4-1.1,0.1-1.6c1.1-1.1,2.1-2.1,3.2-3.2c0.6-0.6,1-0.6,1.6-0.1
	c1.2,0.8,2.4,1.6,3.6,2.5c0.2,0.2,0.4,0.2,0.7,0.1c0.7-0.3,1.4-0.6,2-0.9c0.3-0.1,0.4-0.2,0.5-0.6c0.2-1.4,0.5-2.9,0.8-4.3
	c0.1-0.8,0.5-1,1.3-1c1.5,0,3,0,4.5,0c0.8,0,1.2,0.3,1.3,1.1c0.3,1.4,0.5,2.8,0.8,4.2c0.1,0.3,0.2,0.5,0.5,0.6
	c0.7,0.3,1.5,0.5,2.2,0.9c0.3,0.1,0.5,0.1,0.8,0c1.2-0.8,2.4-1.6,3.6-2.5c0.7-0.5,1.1-0.4,1.7,0.2c1.1,1,2.1,2.1,3.1,3.1
	c0.6,0.6,0.6,1,0.2,1.7c-0.8,1.2-1.6,2.4-2.5,3.6c-0.2,0.2-0.2,0.4-0.1,0.7c0.3,0.7,0.6,1.4,0.9,2.1c0.1,0.3,0.3,0.4,0.6,0.5
	c1.5,0.3,2.9,0.5,4.4,0.8c0.7,0.1,0.9,0.5,0.9,1.1c0,1.6,0,3.2,0,4.8c0,0.7-0.3,1-1,1.1c-1.5,0.3-2.9,0.6-4.4,0.8
	c-0.3,0.1-0.4,0.2-0.5,0.5c-0.3,0.7-0.6,1.4-0.9,2.1c-0.1,0.3-0.1,0.5,0.1,0.8c0.8,1.2,1.6,2.4,2.4,3.5c0.5,0.7,0.4,1.1-0.2,1.7
	c-1.1,1.1-2.1,2.1-3.2,3.2C34.9,53.9,34.6,54,34.3,54.2z M22.3,46.1c4.7,0,8.6-3.9,8.6-8.6c0-4.7-3.8-8.5-8.5-8.5
	c-4.7,0-8.6,3.8-8.6,8.5C13.7,42.2,17.6,46.1,22.3,46.1z"/>
<path d="M57.3,29.4c-0.2-0.1-0.3-0.1-0.4-0.2c-0.6-0.4-1.2-0.8-1.8-1.2c-0.1-0.1-0.2-0.1-0.3,0
	c-0.4,0.2-0.7,0.3-1.1,0.4c-0.1,0.1-0.2,0.1-0.2,0.3c-0.1,0.7-0.3,1.4-0.4,2.1c-0.1,0.5-0.2,0.6-0.7,0.6c-0.7,0-1.5,0-2.2,0
	c-0.4,0-0.6-0.1-0.6-0.5c-0.1-0.7-0.3-1.4-0.4-2.2c0-0.2-0.1-0.2-0.2-0.3c-0.3-0.1-0.7-0.3-1-0.4c-0.1-0.1-0.2-0.1-0.4,0
	c-0.6,0.4-1.2,0.8-1.7,1.2c-0.4,0.3-0.6,0.2-0.9-0.1c-0.5-0.5-1-1-1.6-1.6c-0.3-0.3-0.3-0.5-0.1-0.8c0.4-0.6,0.8-1.2,1.2-1.7
	c0.1-0.1,0.1-0.2,0-0.4c-0.2-0.3-0.3-0.7-0.5-1.1c0-0.1-0.1-0.2-0.2-0.2c-0.7-0.2-1.5-0.3-2.2-0.4c-0.3-0.1-0.5-0.2-0.5-0.6
	c0-0.8,0-1.6,0-2.3c0-0.4,0.1-0.5,0.5-0.6c0.7-0.1,1.4-0.3,2.1-0.4c0.2,0,0.3-0.1,0.3-0.3c0.1-0.3,0.3-0.7,0.4-1
	c0.1-0.2,0.1-0.2,0-0.4c-0.4-0.6-0.8-1.2-1.2-1.8c-0.2-0.3-0.2-0.5,0.1-0.8c0.5-0.5,1.1-1.1,1.6-1.6c0.3-0.3,0.5-0.3,0.8-0.1
	c0.6,0.4,1.2,0.8,1.8,1.2c0.1,0.1,0.2,0.1,0.4,0c0.3-0.2,0.7-0.3,1-0.4c0.1-0.1,0.2-0.1,0.3-0.3c0.1-0.7,0.3-1.4,0.4-2.2
	c0.1-0.4,0.2-0.5,0.6-0.5c0.8,0,1.5,0,2.3,0c0.4,0,0.6,0.1,0.7,0.5c0.1,0.7,0.3,1.4,0.4,2.1c0,0.2,0.1,0.2,0.2,0.3
	c0.4,0.1,0.7,0.3,1.1,0.4c0.1,0.1,0.2,0.1,0.4,0c0.6-0.4,1.2-0.8,1.8-1.2c0.4-0.2,0.6-0.2,0.9,0.1c0.5,0.5,1,1,1.6,1.6
	c0.3,0.3,0.3,0.5,0.1,0.8c-0.4,0.6-0.8,1.2-1.2,1.8c-0.1,0.1-0.1,0.2,0,0.4c0.2,0.3,0.3,0.7,0.4,1c0.1,0.2,0.1,0.2,0.3,0.2
	c0.7,0.1,1.5,0.3,2.2,0.4c0.3,0.1,0.5,0.2,0.5,0.6c0,0.8,0,1.6,0,2.4c0,0.3-0.2,0.5-0.5,0.6c-0.7,0.1-1.5,0.3-2.2,0.4
	c-0.2,0-0.2,0.1-0.3,0.2c-0.1,0.4-0.3,0.7-0.4,1.1c-0.1,0.1-0.1,0.2,0,0.4c0.4,0.6,0.8,1.2,1.2,1.8c0.2,0.4,0.2,0.6-0.1,0.9
	c-0.5,0.5-1.1,1.1-1.6,1.6C57.6,29.2,57.4,29.3,57.3,29.4z M51.3,25.3c2.4,0,4.3-1.9,4.3-4.3c0-2.3-1.9-4.3-4.3-4.3
	c-2.4,0-4.3,1.9-4.3,4.3C47,23.4,48.9,25.3,51.3,25.3z"/>
</svg>
