<svg version="1.1" xmlns="http://www.w3.org/2000/svg" viewBox="0 0 64 64" style="fill:#E51B48" >
<path d="M14.8,40.8c0-1.4,0-2.9,0-4.3c0-0.3,0.1-0.5,0.1-0.8c0.1-4.2,0.2-8.4,0.3-12.6c0.1-2.7,0.1-5.5,0.2-8.2
	c0-1,0.5-1.8,1.5-2.2c2-0.8,4.5,0.3,4.4,2.8c-0.1,4.2,0,8.4,0,12.5c0,0.2-0.1,0.4,0,0.5c0.2,0.2,0.4,0.6,0.7,0.6
	c0.2,0,0.5-0.3,0.6-0.6c0.1-0.2,0-0.4,0-0.6c0-6,0-11.9,0-17.9c0-0.8,0.2-1.5,0.7-2.1C24.2,6.8,25.7,6.5,27,7
	c1.2,0.5,1.8,1.4,1.8,2.8c0,5.6,0,11.2,0,16.7c0,0.9,0.2,1.2,0.7,1.2c0.5,0,0.7-0.3,0.7-1.2c0-7.2,0-14.4,0-21.6
	c0-0.9,0.3-1.7,1.1-2.3c1.2-0.9,2.5-0.8,3.8-0.3C36.2,3,36.3,4,36.3,5.1c0,7.2,0,14.3,0,21.5c0,0.9,0.2,1.2,0.7,1.2
	c0.5,0,0.7-0.4,0.7-1.3c0-6,0-12.1,0-18.1c0-1.8,1.3-3,3.1-3c1.9,0,3.1,1.2,3.1,3c0,9.4,0,18.7,0,28.1c0,1.3,0,2.6,0,4
	c0,0.4,0.1,0.7,0.6,0.8c0.4,0.1,0.7-0.1,0.8-0.5c0.3-0.7,0.5-1.4,0.8-2.1c1.3-3,2.5-6.1,3.9-9.1c0.6-1.3,1.9-2,3.2-1.9
	c1.6,0.2,2.8,1.1,3.2,2.6c0,0.3,0,0.5,0,0.8c-0.1,0.3-0.2,0.6-0.3,0.9c-2.2,6.4-4.4,12.7-6.6,19.1c-0.9,2.5-2.3,4.6-4.3,6.2
	c-4.9,4-10.6,5-16.7,4c-6-1-9.9-4.8-11.8-10.6C15.5,47.7,15,44.2,14.8,40.8z"/>
</svg>
