<svg
   xmlns="http://www.w3.org/2000/svg"
   style="fill:#e51b48"
   viewBox="0 0 64 64"
   version="1.1">

  <path
     d="m 27.458339,29.361443 -22.8991056,0 c -0.794188,0 -1.443979,-0.649791 -1.443979,-1.443979 l 0,-22.899105 c 0,-0.7941886 0.649791,-1.4439796 1.443979,-1.4439796 l 22.8870726,0 c 0.794188,0 1.443979,0.649791 1.443979,1.4439796 l 0,22.887071 c 0.01203,0.806222 -0.637758,1.456013 -1.431946,1.456013 z" />
  <path
     d="m 59.586878,29.361443 -22.887072,0 c -0.794188,0 -1.443979,-0.649791 -1.443979,-1.443979 l 0,-22.899105 c 0,-0.7941886 0.649791,-1.4439796 1.443979,-1.4439796 l 22.887072,0 c 0.794189,0 1.443979,0.649791 1.443979,1.4439796 l 0,22.887071 c 0,0.806222 -0.64979,1.456013 -1.443979,1.456013 z" />
  <path
     d="m 27.542571,61.17712 -22.8870716,0 c -0.794189,0 -1.44398,-0.649791 -1.44398,-1.443979 l 0,-22.887072 c 0,-0.794189 0.649791,-1.443979 1.44398,-1.443979 l 22.8870716,0 c 0.794189,0 1.443979,0.64979 1.443979,1.443979 l 0,22.887072 c 0,0.794188 -0.64979,1.443979 -1.443979,1.443979 z" />
  <path
     d="m 59.683143,61.17712 -22.899105,0 c -0.794188,0 -1.443979,-0.649791 -1.443979,-1.443979 l 0,-22.887072 c 0,-0.794189 0.649791,-1.443979 1.443979,-1.443979 l 22.887072,0 c 0.794189,0 1.44398,0.64979 1.44398,1.443979 l 0,22.887072 c 0.01203,0.794188 -0.637758,1.443979 -1.431947,1.443979 z" />
</svg>
