<svg version="1.1" xmlns="http://www.w3.org/2000/svg" viewBox="0 0 64 64" style="fill:#E51B48" >
<path d="M31.1,59.7c-3.2-2.1-6.4-4.1-9.6-6.2C15,49.3,8.4,45.1,1.8,40.8c-0.2-0.1-0.4-0.2-0.6-0.4
	c0.2-0.1,0.4-0.3,0.5-0.4c2-1.3,4-2.5,5.9-3.8c0.4-0.3,0.7-0.3,1.2,0c7.5,4.9,15.1,9.7,22.6,14.5c0.4,0.3,0.7,0.3,1.1,0
	c7.6-4.9,15.1-9.7,22.7-14.6c0.4-0.3,0.7-0.3,1.1,0c2,1.3,4,2.6,6,3.8c0.2,0.1,0.3,0.2,0.5,0.4c-0.3,0.2-0.5,0.3-0.7,0.5
	c-9.5,6.1-19,12.2-28.5,18.3c-0.2,0.1-1.3,0.9-1.5,1.1C31.6,60,31.6,60,31.1,59.7z"/>
<path d="M1.2,23.7c0.2-0.1,0.4-0.3,0.5-0.4c9.9-6.4,19.8-12.7,29.7-19.1c0.4-0.3,0.7-0.3,1.1,0
	c9.9,6.4,19.8,12.8,29.8,19.1c0.1,0.1,0.3,0.2,0.5,0.3c-0.2,0.1-0.4,0.3-0.6,0.4c-9.9,6.3-19.8,12.7-29.7,19.1
	c-0.4,0.3-0.7,0.3-1.1,0C21.5,36.7,11.6,30.4,1.7,24C1.6,23.9,1.4,23.8,1.2,23.7z"/>
</svg>
