<svg version="1.1" xmlns="http://www.w3.org/2000/svg" viewBox="0 0 64 64" style="fill:#E51B48" >
<path d="M61,17.8c-0.3,0.8-0.9,1-1.7,1c-4.1,0-8.3,0-12.4,0c-1.2,0-1.7-0.5-1.7-1.7c0-4.1,0-8.3,0-12.4
	c0-0.8,0.3-1.4,1-1.7c4.6,0,9.3,0,13.9,0c0.3,0.3,0.6,0.6,0.9,0.9C61,8.6,61,13.2,61,17.8z"/>
<path d="M46.2,61c-0.7-0.3-1-0.9-1-1.7c0-4.1,0-8.3,0-12.4c0-1.2,0.5-1.7,1.7-1.7c4.1,0,8.3,0,12.4,0
	c0.8,0,1.4,0.2,1.7,1c0,4.6,0,9.3,0,13.9c-0.3,0.3-0.6,0.6-0.9,0.9C55.4,61,50.8,61,46.2,61z"/>
<path d="M3,46.2c0.3-0.8,0.9-1,1.7-1c4.1,0,8.3,0,12.4,0c1.2,0,1.7,0.5,1.7,1.7c0,4.1,0,8.3,0,12.4
	c0,0.8-0.3,1.4-1,1.7c-4.6,0-9.3,0-13.9,0c-0.3-0.3-0.6-0.6-0.9-0.9C3,55.4,3,50.8,3,46.2z"/>
<path d="M39,3c0.7,0.4,0.9,1,0.9,1.8c0,4.1,0,8.2,0,12.3c0,1.2-0.5,1.7-1.7,1.7c-4.1,0-8.3,0-12.4,0
	c-1.2,0-1.7-0.5-1.7-1.7c0-4.1,0-8.2,0-12.3C24.1,4,24.3,3.4,25,3C29.7,3,34.3,3,39,3z"/>
<path d="M3,25c0.4-0.7,1-0.9,1.8-0.9c4.1,0,8.2,0,12.3,0c1.2,0,1.7,0.5,1.7,1.7c0,4.2,0,8.3,0,12.5
	c0,1.2-0.5,1.7-1.6,1.7c-4.1,0-8.2,0-12.3,0C4,39.9,3.4,39.7,3,39C3,34.3,3,29.7,3,25z"/>
<path d="M61,39c-0.4,0.7-1,0.9-1.8,0.9c-4.1,0-8.2,0-12.3,0c-1.2,0-1.7-0.5-1.7-1.7c0-4.1,0-8.3,0-12.4
	c0-1.2,0.5-1.7,1.7-1.7c4.1,0,8.2,0,12.3,0c0.8,0,1.4,0.2,1.8,0.9C61,29.7,61,34.3,61,39z"/>
<path d="M25,61c-0.7-0.4-0.9-1-0.9-1.8c0-4.1,0-8.2,0-12.3c0-1.2,0.5-1.7,1.7-1.7c4.1,0,8.3,0,12.4,0
	c1.2,0,1.7,0.5,1.7,1.7c0,4.1,0,8.2,0,12.3c0,0.8-0.2,1.4-0.9,1.8C34.3,61,29.7,61,25,61z"/>
<path d="M17.8,3c0.8,0.3,1,0.9,1,1.7c0,4.1,0,8.3,0,12.4c0,1.2-0.5,1.7-1.7,1.7c-4.1,0-8.3,0-12.4,0
	c-0.8,0-1.4-0.2-1.7-1c0-4.6,0-9.3,0-13.9C3.3,3.6,3.6,3.3,3.9,3C8.6,3,13.2,3,17.8,3z"/>
<path d="M32,39.9c-2.1,0-4.2,0-6.2,0c-1.2,0-1.6-0.5-1.6-1.7c0-4.2,0-8.3,0-12.5c0-1.2,0.5-1.7,1.6-1.7
	c4.2,0,8.4,0,12.6,0c1.1,0,1.6,0.5,1.6,1.6c0,4.2,0,8.4,0,12.6c0,1.1-0.5,1.6-1.6,1.6C36.2,39.9,34.1,39.9,32,39.9z"/>
</svg>
