<svg version="1.1" xmlns="http://www.w3.org/2000/svg" viewBox="0 0 64 64" style="fill:#E51B48" >
<path d="M62.7,1.5c0,3.8,0,7.6,0,11.5c-0.3,0-0.5,0-0.7,0c-2.7,0-5.5,0-8.2,0c-0.3,0-0.7,0.2-1,0.4
	C39.5,26.6,26.3,39.7,13.2,52.9c-0.2,0.2-0.4,0.6-0.4,0.9c0,2.6,0,5.3,0,7.9c0,0.2,0,0.5,0,0.8c-3.8,0-7.6,0-11.4,0
	c0-3.8,0-7.6,0-11.4c0.3,0,0.5,0,0.7,0c2.7,0,5.4,0,8.2,0c0.5,0,0.8-0.1,1.2-0.5c13.1-13.1,26.2-26.2,39.3-39.3
	c0.3-0.3,0.4-0.6,0.4-1.1c0-2.7,0-5.3,0-8c0-0.3,0.1-0.5,0.1-0.8C55.1,1.5,58.9,1.5,62.7,1.5z M59.8,10.1c0-1.9,0-3.8,0-5.8
	c-1.8,0-3.6,0-5.3,0C54,4.3,54,4.6,54,4.9c0,1.1,0,2.2,0,3.2c0,0.6,0,1.3,0,2C56,10.1,57.9,10.1,59.8,10.1z M4.2,59.7
	c1.8,0,3.6,0,5.4,0c0.1,0,0.3-0.3,0.3-0.5c0-1.6,0-3.1,0-4.7c0-0.4-0.2-0.6-0.6-0.6c-1.6,0-3.2,0-4.8,0c-0.1,0-0.3,0.1-0.4,0.1
	C4.2,55.9,4.2,57.8,4.2,59.7z"/>
</svg>
