<svg version="1.1" xmlns="http://www.w3.org/2000/svg" viewBox="0 0 64 64" style="fill:#E51B48">
<path d="M52.8,62.1c-13.9,0-27.8,0-41.6,0c-0.1,0-0.2-0.1-0.3-0.1c-2.1-0.5-3.6-2.1-3.9-4.2c0-0.2,0-0.5,0-0.7
	c0-8.3,0-16.6,0-24.9c0-1.3,0.4-2.4,1.2-3.4c1-1.2,2.3-1.7,3.8-1.8c0.8,0,1.6,0,2.5,0c0-2.7,0-5.2,0-7.8c0.1-7.7,5.3-14.5,12.6-16.6
	c1-0.3,2.1-0.5,3.1-0.7c1.2,0,2.4,0,3.5,0c0.4,0.1,0.8,0.2,1.2,0.2c8.1,1.3,14.4,8.4,14.6,16.7c0.1,2.5,0,5,0,7.5c0,0.2,0,0.4,0,0.7
	c0.8,0,1.5,0,2.2,0c3.1-0.1,5.4,2.3,5.4,5.4c-0.1,4.9,0,9.7,0,14.6c0,3.4,0,6.7,0,10.1c0,2.5-1.6,4.4-4,5C53,62,52.9,62.1,52.8,62.1
	z M42,26.9c0-0.2,0-0.3,0-0.4c0-2.4,0-4.8,0-7.2c0-0.7-0.1-1.4-0.2-2c-1.1-5.1-5.8-8.4-10.8-7.9c-5.1,0.5-8.9,4.8-9,10
	c0,2.3,0,4.7,0,7c0,0.2,0,0.3,0,0.5C28.7,26.9,35.3,26.9,42,26.9z"/>
</svg>
