<svg version="1.1" xmlns="http://www.w3.org/2000/svg" viewBox="0 0 64 64" style="fill:#E51B48" >
<path d="M41.6,45.5C29.6,54.6,14.5,50.8,7,41.4c-8-10.1-6.9-24.3,2.1-33.1c9-8.7,23.1-9.3,32.8-1.4
	c9.7,7.9,12.6,22.9,3.9,34.4c0.2,0.2,0.3,0.4,0.5,0.5c5,5,10,10,15,15c1.2,1.2,1.3,2.7,0.5,3.9c-1,1.6-3.2,1.8-4.6,0.4
	c-1.5-1.5-3-3-4.6-4.6C49.1,53,45.5,49.4,42,45.8C41.9,45.7,41.7,45.6,41.6,45.5z M26.3,7.3C16,7.3,7.6,15.7,7.6,26
	c0,10.3,8.4,18.7,18.7,18.7c10.4,0,18.7-8.4,18.7-18.7C45,15.7,36.6,7.3,26.3,7.3z"/>
<path d="M27.8,14.8v8.8h8.4v3.8h-8.4v8.9h-4v-8.9h-8.5v-3.8h8.5v-8.8H27.8z"/>
</svg>
