<svg version="1.1" xmlns="http://www.w3.org/2000/svg" viewBox="0 0 612 792" style="fill:#E51B48">
	<path d="M313.073,367.647c-3.27-3.525-7.327-6.315-12.173-8.372
		c-4.847-2.055-10.503-3.084-16.964-3.084h-28.783v42.708h17.657v-26.846h11.126c3.231,0,6.131,0.551,8.703,1.653
		c2.569,1.101,4.736,2.681,6.499,4.736c1.762,2.057,3.101,4.499,4.021,7.326c0.917,2.828,1.376,5.967,1.376,9.418
		c0,3.379-0.459,6.482-1.376,9.31c-0.92,2.828-2.241,5.287-3.966,7.38c-1.726,2.093-3.875,3.728-6.444,4.901
		c-2.572,1.177-5.508,1.764-8.813,1.764H272.81v-5.999h-17.657v21.86h28.783c5.875,0,11.217-0.936,16.028-2.809
		c4.809-1.872,8.923-4.516,12.338-7.931s6.039-7.527,7.876-12.338c1.835-4.81,2.754-10.189,2.754-16.139
		c0-5.359-0.826-10.409-2.479-15.146C318.801,375.303,316.34,371.172,313.073,367.647"/>
	<path d="M355.593,379.158c-3.122,2.167-5.711,5.196-7.766,9.088v-11.677h-16.193v57.833
		h17.625v-34.7c1.614-2.643,4.131-4.626,7.546-5.948c3.414-1.322,7.251-2.019,11.511-2.093v-15.863
		c-0.367-0.072-1.286-0.11-2.754-0.11C362.037,375.836,358.713,376.993,355.593,379.158"/>
	<path d="M425.817,384.446c-2.645-2.754-5.877-4.938-9.694-6.555
		c-3.82-1.614-8.19-2.423-13.109-2.423c-4.921,0-9.308,0.809-13.163,2.423c-3.855,1.617-7.105,3.82-9.75,6.61
		c-2.643,2.792-4.664,6.041-6.058,9.749c-1.396,3.709-2.093,7.656-2.093,11.842c0,3.894,0.697,7.62,2.093,11.182
		c1.394,3.563,3.432,6.701,6.114,9.418c2.679,2.718,5.948,4.865,9.804,6.443c3.855,1.579,8.206,2.369,13.053,2.369
		c6.683,0,12.41-1.432,17.186-4.297c4.771-2.863,8.298-6.571,10.575-11.125l-14.982-4.186c-0.809,2.13-2.406,3.818-4.791,5.066
		c-2.388,1.249-4.866,1.872-7.436,1.872c-3.232,0-6.114-1.008-8.647-3.029c-2.534-2.019-3.949-4.974-4.241-8.866h42.74
		c0.147-0.734,0.257-1.599,0.331-2.59c0.072-0.991,0.11-2,0.11-3.028c0-3.966-0.681-7.748-2.038-11.347
		C430.461,390.377,428.461,387.2,425.817,384.446 M390.346,400.033c0.366-3.598,1.67-6.48,3.911-8.647
		c2.239-2.166,5.084-3.25,8.537-3.25c3.377,0,6.205,1.065,8.482,3.195c2.275,2.131,3.597,5.031,3.966,8.702H390.346z"/>
	<path d="M493.121,414.573v-14.871c0-7.931-2.387-13.952-7.16-18.065
		c-4.774-4.112-11.529-6.169-20.269-6.169c-4.627,0-8.997,0.625-13.109,1.873c-4.113,1.25-8.079,3.122-11.896,5.618l5.178,11.016
		c3.156-2.129,6.168-3.726,9.032-4.792c2.864-1.064,5.875-1.597,9.032-1.597c7.712,0,11.567,3.342,11.567,10.024v2.645
		c-1.689-0.808-3.673-1.413-5.948-1.818c-2.277-0.403-4.627-0.606-7.051-0.606c-3.673,0-7.014,0.479-10.023,1.433
		c-3.013,0.956-5.618,2.277-7.821,3.966c-2.203,1.69-3.91,3.709-5.122,6.059c-1.212,2.352-1.818,4.957-1.818,7.821
		c0,2.645,0.514,5.086,1.542,7.325c1.028,2.241,2.424,4.186,4.187,5.839c1.763,1.652,3.873,2.938,6.334,3.855
		c2.46,0.918,5.122,1.377,7.986,1.377c3.967,0,7.729-0.882,11.291-2.645c3.562-1.762,6.626-4.296,9.198-7.6l0.331,2.643
		c0.44,2.353,1.504,4.15,3.194,5.398c1.688,1.248,4.147,1.909,7.38,1.982c1.102,0,2.369-0.055,3.801-0.165
		c1.433-0.11,2.991-0.35,4.681-0.716v-14.871c-1.689-0.146-2.862-0.568-3.523-1.267
		C493.452,417.567,493.121,416.337,493.121,414.573 M475.496,415.015c0,1.47-0.845,2.864-2.534,4.186
		c-1.175,1.102-2.662,1.983-4.461,2.645c-1.801,0.661-3.653,0.991-5.563,0.991c-2.497,0-4.555-0.679-6.169-2.038
		c-1.616-1.358-2.424-3.102-2.424-5.232c0-2.35,1.047-4.259,3.14-5.728c2.093-1.47,4.754-2.204,7.987-2.204
		c1.541,0,3.212,0.166,5.012,0.496c1.798,0.331,3.47,0.79,5.012,1.377V415.015z"/>
	<path d="M596.504,389.898c-0.404-2.57-1.23-4.938-2.479-7.105
		c-1.25-2.165-2.993-3.928-5.232-5.288c-2.241-1.358-5.196-2.038-8.867-2.038c-4.627,0-8.741,0.975-12.338,2.919
		c-3.6,1.947-6.463,4.72-8.593,8.317c-0.368-1.542-0.975-2.991-1.817-4.351c-0.845-1.358-1.911-2.551-3.195-3.58
		c-1.285-1.027-2.847-1.835-4.681-2.423c-1.837-0.587-3.931-0.882-6.279-0.882c-4.847,0-9.106,0.92-12.779,2.754
		c-3.673,1.837-6.572,4.517-8.701,8.042v-9.694h-15.863v57.833h17.626v-33.158c1.027-3.084,2.66-5.563,4.902-7.435
		c2.238-1.873,4.532-2.81,6.884-2.81c2.275,0,4.093,0.865,5.453,2.589c1.357,1.727,2.038,4.5,2.038,8.317v32.497h17.625v-33.158
		c1.027-3.01,2.66-5.47,4.901-7.379c2.24-1.909,4.534-2.865,6.885-2.865c2.276,0,4.094,0.865,5.453,2.589
		c1.358,1.727,2.038,4.5,2.038,8.317v32.497h17.625V397.39C597.109,394.966,596.906,392.47,596.504,389.898"/>
	<path d="M103.279,381.597c-1.25-2.165-2.993-3.928-5.232-5.288
		c-2.241-1.358-5.197-2.038-8.868-2.038c-4.627,0-8.741,0.975-12.338,2.92c-3.599,1.946-6.463,4.719-8.592,8.317
		c-0.368-1.543-0.974-2.992-1.818-4.352c-0.845-1.358-1.91-2.55-3.194-3.58c-1.286-1.027-2.847-1.835-4.682-2.423
		c-1.837-0.587-3.929-0.882-6.279-0.882c-4.847,0-9.107,0.92-12.778,2.754c-3.673,1.837-6.573,4.517-8.702,8.042v-9.694H14.933
		v57.833h17.625v-33.158c1.028-3.084,2.661-5.563,4.902-7.435c2.239-1.873,4.534-2.809,6.885-2.809c2.275,0,4.093,0.864,5.452,2.588
		c1.359,1.727,2.038,4.5,2.038,8.317v32.497h17.626v-33.158c1.027-3.01,2.66-5.47,4.902-7.38c2.239-1.909,4.533-2.864,6.885-2.864
		c2.275,0,4.092,0.864,5.452,2.588c1.358,1.727,2.038,4.5,2.038,8.317v32.497h17.626v-37.013c0-2.424-0.203-4.919-0.606-7.491
		C105.353,386.132,104.527,383.764,103.279,381.597"/>
	<path d="M167.83,383.25c-2.644-2.754-5.876-4.938-9.694-6.555
		c-3.82-1.614-8.189-2.423-13.108-2.423c-4.922,0-9.309,0.809-13.164,2.423c-3.856,1.617-7.106,3.82-9.75,6.61
		c-2.644,2.792-4.664,6.041-6.058,9.749c-1.396,3.709-2.093,7.656-2.093,11.842c0,3.894,0.697,7.62,2.093,11.182
		c1.394,3.563,3.432,6.701,6.114,9.418c2.679,2.718,5.948,4.865,9.804,6.443c3.855,1.579,8.206,2.369,13.054,2.369
		c6.681,0,12.409-1.432,17.184-4.297c4.773-2.863,8.298-6.571,10.575-11.125l-14.982-4.187c-0.808,2.131-2.406,3.819-4.791,5.067
		c-2.388,1.249-4.866,1.872-7.436,1.872c-3.232,0-6.114-1.008-8.647-3.029c-2.534-2.019-3.949-4.974-4.242-8.866h42.742
		c0.146-0.734,0.256-1.599,0.33-2.59c0.072-0.991,0.11-2,0.11-3.028c0-3.966-0.679-7.748-2.038-11.347
		C172.474,389.181,170.474,386.004,167.83,383.25 M132.359,398.837c0.367-3.597,1.67-6.48,3.911-8.647
		c2.239-2.166,5.084-3.25,8.537-3.25c3.377,0,6.205,1.065,8.482,3.195c2.276,2.131,3.598,5.031,3.966,8.702H132.359z"/>
	<path d="M223.55,412.54c-1.174,1.947-2.655,3.55-4.499,4.747
		c-2.202,1.433-4.516,2.149-6.939,2.149c-4.114,0-7.455-1.396-10.025-4.186c-2.572-2.79-3.855-6.353-3.855-10.687
		c0-2.055,0.311-4.002,0.936-5.838c0.624-1.835,1.523-3.451,2.699-4.847c1.174-1.394,2.55-2.515,4.131-3.36
		c1.578-0.843,3.322-1.267,5.232-1.267c2.644,0,5.195,0.937,7.656,2.809c2.351,1.791,4.075,4.075,5.185,6.837h17.439V356.19h-17.407
		v28.629c-1.762-3.218-4.29-5.779-7.585-7.684c-3.305-1.909-6.94-2.864-10.906-2.864c-3.745,0-7.179,0.771-10.299,2.313
		c-3.123,1.543-5.822,3.655-8.097,6.334c-2.277,2.682-4.039,5.858-5.288,9.529c-1.249,3.673-1.872,7.602-1.872,11.787
		c0,4.334,0.678,8.317,2.038,11.952c1.358,3.635,3.249,6.812,5.672,9.528c2.424,2.718,5.306,4.83,8.648,6.335
		c3.341,1.504,6.995,2.258,10.961,2.258c3.966,0,7.673-0.881,11.126-2.645c2.117-1.081,3.982-2.511,5.602-4.281v7.027h17.407V412.54
		H223.55z"/>
</svg>
