<svg version="1.1" xmlns="http://www.w3.org/2000/svg" viewBox="-447 249 64 64" style="fill:#E51B48" >
<path d="M-441.3,297.4c0-13.1,0-26.3,0-39.4c17.5,0,35,0,52.6,0c0,13.1,0,26.3,0,39.4c-7.7,0-15.3,0-23,0c0,1.1,0,2.2,0,3.3
	c3.3,0,6.5,0,9.8,0c0,1.1,0,2.2,0,3.3c-8.8,0-17.5,0-26.3,0c0-1.1,0-2.2,0-3.3c3.3,0,6.6,0,9.8,0c0-1.1,0-2.2,0-3.3
	C-426,297.4-433.6,297.4-441.3,297.4z M-392,294.1c0-11,0-21.9,0-32.8c-15.3,0-30.6,0-45.9,0c0,11,0,21.9,0,32.8
	C-422.7,294.1-407.4,294.1-392,294.1z"/>
	<path d="M-430.3,274.1L-430.3,274.1l-2.2,1.1l-0.4-1.7l2.9-1.4h1.8v11.7h-2.1V274.1z"/>
	<path d="M-405.5,283.8v-1.3l1.4-1.3c2.8-2.6,4.1-4,4.1-5.5c0-1-0.6-2-2.1-2c-1,0-1.9,0.5-2.5,1l-0.6-1.6c0.8-0.7,2.1-1.2,3.6-1.2
		c2.6,0,3.9,1.6,3.9,3.5c0,2.1-1.5,3.7-3.5,5.6l-1,0.9v0h4.8v1.8H-405.5z"/>
<rect x="-415.8" y="260.6" width="0.9" height="33.5"/>
</svg>
