<svg
   xmlns="http://www.w3.org/2000/svg"
   style="fill:#D0D0D0"
   viewBox="0 0 64 64"
   version="1.1">
  <path
     d="m 63.997813,61.676367 c -1.167883,0 -2.218978,0 -3.386861,0 -0.467154,0 -0.817519,-0.116788 -1.051095,-0.583942 -0.583942,-1.051094 -1.284672,-2.102189 -1.985402,-3.270073 -0.583941,0.934307 -1.284671,1.868614 -1.751824,2.80292 -0.350365,0.817518 -0.934307,1.051095 -1.751825,1.051095 -0.934307,-0.116788 -1.751825,0 -2.80292,0 0.116788,-0.233577 0.233577,-0.350365 0.350365,-0.583942 1.051095,-1.635036 2.218978,-3.386861 3.270073,-5.021897 0.350365,-0.467154 0.233577,-0.70073 0,-1.167884 -1.051095,-1.635036 -2.10219,-3.270073 -3.270073,-5.021897 1.284671,0 2.569343,0 3.737226,0 0.116789,0 0.350365,0.233576 0.467154,0.467153 0.583941,1.051095 1.167883,2.10219 1.868613,3.153285 0.583941,-1.051095 1.167883,-2.10219 1.751824,-3.153285 0.233577,-0.467153 0.467154,-0.583942 0.934307,-0.583942 1.051095,0 2.10219,0 3.270073,0 -1.284671,2.10219 -2.452555,3.970803 -3.620438,5.839416 1.40146,1.985402 2.686131,3.970803 3.970803,5.839416 0,0.116789 0,0.116789 0,0.233577 z" />
  <path
     d="m 33.983214,28.625272 c 0,2.569343 0,5.021898 0,7.591241 0,0.467153 0.116789,0.70073 0.583942,0.934307 4.321168,2.452554 8.759124,5.021897 13.080292,7.59124 1.051095,0.583942 1.167883,1.167884 0.583942,2.218979 -0.467154,0.700729 -0.817519,1.518248 -1.284672,2.218978 -0.583941,0.934306 -1.167883,1.051095 -2.10219,0.583941 -3.737226,-2.10219 -7.474452,-4.321168 -11.09489,-6.423357 -0.583942,-0.350365 -1.167883,-0.583942 -1.751825,-1.051095 -0.583942,-0.467154 -1.051095,-0.350365 -1.635036,0 -4.20438,2.452554 -8.525548,4.905109 -12.729928,7.357664 -1.167883,0.70073 -1.635036,0.467153 -2.335766,-0.583942 -0.467153,-0.70073 -0.817518,-1.40146 -1.284671,-2.218978 -0.467154,-0.934306 -0.350365,-1.518248 0.583941,-1.985401 4.321168,-2.569343 8.642336,-5.021898 13.080292,-7.474453 0.467153,-0.233576 0.583942,-0.583941 0.583942,-1.051095 0,-5.021898 0,-10.043795 0,-15.065693 0,-1.284672 0.350365,-1.751825 1.751825,-1.751825 0.817518,0 1.635036,0 2.452554,0 1.167883,0 1.635037,0.467153 1.635037,1.635037 -0.116789,2.452554 -0.116789,5.021897 -0.116789,7.474452 z" />
  <path
     d="m -0.0021865,61.44279 c 0,-0.70073 0,-1.401459 0,-1.985401 0,-0.233577 0.2335766,-0.583942 0.350365,-0.70073 1.8686131,-1.985401 3.6204379,-3.854015 5.489051,-5.722628 0.116788,-0.116788 0.350365,-0.350365 0.583942,-0.70073 -1.9854018,0 -3.8540149,0 -5.7226281,0 0,-0.817518 0,-1.635036 0,-2.452554 3.3868613,0 6.6569341,0 10.1605836,0 0,1.051094 0.233577,2.102189 -0.70073,3.153284 -1.868612,1.751825 -3.5036495,3.620438 -5.255474,5.372263 -0.1167883,0.116788 -0.350365,0.350365 -0.5839416,0.70073 2.3357661,0 4.5547436,0 6.7737226,0 0,0.817518 0,1.635036 0,2.452555 C 7.3554775,61.44279 3.7350398,61.44279 -0.0021865,61.44279 Z" />
  <path
     d="m 33.165696,15.428192 c -1.284671,0 -2.335766,0 -3.620438,0 0,-1.40146 0,-2.80292 0,-4.087592 0,-0.467153 -0.116788,-0.934306 -0.350365,-1.284671 C 27.910222,8.187316 26.62555,6.201914 25.457667,4.3333009 25.340879,4.2165126 25.22409,4.0997242 25.107302,3.7493593 c 1.284672,0 2.569343,0 3.737226,0 0.233577,0 0.350365,0.2335766 0.467154,0.4671533 0.70073,1.1678832 1.401459,2.2189781 2.102189,3.5036496 0.583942,-1.0510949 1.167884,-1.9854015 1.751825,-2.919708 0.350365,-0.8175183 0.934307,-1.0510949 1.751825,-1.0510949 0.817518,0.1167883 1.751825,0 2.686131,0 -0.116788,0.2335766 -0.233576,0.3503649 -0.350365,0.5839416 -1.284671,1.8686131 -2.569343,3.8540151 -3.854014,5.7226281 -0.233577,0.350365 -0.350365,0.817518 -0.350365,1.167883 0.116788,1.40146 0.116788,2.80292 0.116788,4.20438 z" />
</svg>
