<svg
   xmlns="http://www.w3.org/2000/svg"
   version="1.1"
   viewBox="0 0 744.09448819 1052.3622047"
   style="fill:#D0D0D0">
   
   <path d="M 674.57031,183.78125 A 17.84187,17.84187 0 0 0 657.2793,195.98633 C 612.98519,323.08662 568.69067,450.18679 524.39648,577.28711 416.74248,577.0914 309.08977,576.89491 201.43555,576.69922 148.56909,449.47003 95.702399,322.2409 42.835938,195.01172 A 17.84187,17.84187 0 1 0 9.8867188,208.70312 C 64.272931,339.58976 118.65871,470.47664 173.04492,601.36328 a 17.84187,17.84187 0 0 0 16.44141,10.99414 c 115.84803,0.21051 231.69664,0.42229 347.54492,0.63281 a 17.84187,17.84187 0 0 0 16.87891,-11.96875 c 45.68726,-131.09773 91.37528,-262.1952 137.0625,-393.29296 a 17.84187,17.84187 0 0 0 -16.40235,-23.94727 z"/>
   <path d="m 197.34766,455.14258 c -48.46745,-0.6524 -97.21183,19.9138 -126.550785,61.85547 -61.3363189,77.34258 -13.555299,197.81756 79.916015,220.29297 90.588,29.88743 198.23588,-39.02415 196.125,-138.04297 0.0136,-27.82954 -8.64092,-55.12933 -24.19727,-77.97071 -28.05526,-43.35744 -76.51875,-65.47823 -125.29296,-66.13476 z m -0.52735,36.76172 c 37.77563,0.50102 75.32448,16.86704 95.97657,48.91797 l 0.13085,0.20312 0.13672,0.19922 c 11.62568,17.01274 18.14626,37.72046 18.10157,58.17187 l -0.002,0.22461 0.006,0.22461 C 312.83011,672.11955 228.0172,725.66069 161.34766,703.25 l -0.8086,-0.27148 -0.83008,-0.19336 C 91.846753,686.98478 54.538651,594.92108 98.751953,539.16992 l 0.382813,-0.48242 0.347656,-0.50781 c 21.559868,-31.4118 59.562258,-46.77642 97.337888,-46.27539 z"/>   
   <path d="m 544.5918,455.14258 c -48.46777,-0.6524 -97.2119,19.91323 -126.55078,61.85547 -0.088,0.11092 -0.16249,0.22679 -0.25,0.33789 -0.15513,0.2232 -0.32644,0.42793 -0.48047,0.65234 -60.17137,77.38128 -12.42658,196.93868 80.66406,219.3086 90.57268,29.87017 198.1887,-39.01787 196.10742,-138.00977 0.0217,-27.84307 -8.63364,-55.15769 -24.19726,-78.00977 C 641.82949,477.9199 593.36601,455.79911 544.5918,455.14258 Z m -0.52539,36.76172 c 37.77563,0.50102 75.32446,16.86703 95.97656,48.91797 l 0.12891,0.20312 0.13671,0.19922 c 11.62567,17.01275 18.14626,37.72046 18.10157,58.17187 l 0,0.22461 0.004,0.22461 c 1.66016,72.27386 -83.1527,125.81499 -149.82226,103.4043 l -0.80664,-0.27148 -0.83204,-0.19336 C 439.09105,686.98479 401.78289,594.92107 445.99609,539.16992 l 0.38282,-0.48242 0.34765,-0.50781 c 21.55987,-31.4118 59.56422,-46.77642 97.33985,-46.27539 z"/>  
   
</svg>
