<svg version="1.1" xmlns="http://www.w3.org/2000/svg" viewBox="0 0 64 64" style="fill:#E51B48" >
<path d="M-111.7,173.8c2.1,0,4.1,0,6.1,0c4.4,0,7.1,2.8,7.1,7.2c0,23.8,0,47.7,0,71.5c0,4.6-2.7,7.3-7.3,7.3c-17.2,0-34.3,0-51.5,0
	c-4.6,0-7.3-2.7-7.3-7.3c0-1.9,0-3.9,0-5.9c-1.3,0-2.5,0-3.7,0c-1.4,0-2.8,0-4.1-0.2c-3.3-0.5-5.5-3.2-5.5-6.6c0-11.4,0-22.8,0-34.1
	c0-7.3,0-14.7,0-22c0-2.1,0.7-3.9,2.2-5.4c5.2-5.1,10.3-10.3,15.4-15.4c1.5-1.5,3.3-2.2,5.5-2.2c12,0,23.9,0,35.9,0
	c4.4,0,7.1,2.8,7.1,7.2C-111.6,169.7-111.7,171.6-111.7,173.8z M-171.2,183.6c0,0.4,0,0.7,0,0.9c0,17.8,0,35.7,0,53.5
	c0,1.4,0.6,2,2.1,2c16.3,0,32.6,0,48.8,0c1.6,0,2.1-0.6,2.1-2.1c0-22.9,0-45.8,0-68.7c0-1.6-0.5-2.2-2.2-2.2c-11.1,0-22.1,0-33.2,0
	c-0.4,0-0.7,0-1.1,0c0,3.3,0,6.4,0,9.6c0,3.7-2.2,6.4-5.9,6.9c-1.2,0.2-2.4,0.1-3.6,0.1C-166.5,183.6-168.8,183.6-171.2,183.6z
	 M-111.7,180.3c0,0.7,0,1.2,0,1.7c0,19,0,38.1,0,57.1c0,0.9-0.1,1.9-0.3,2.7c-0.8,2.9-3.4,4.7-6.6,4.7c-12.7,0-25.5,0-38.2,0
	c-0.4,0-0.8,0-1.3,0c0,1.6,0,3,0,4.5c0,1.8,0.5,2.3,2.3,2.3c16.1,0,32.2,0,48.3,0c2.1,0,2.5-0.4,2.5-2.5c0-22.7,0-45.5,0-68.2
	c0-0.3,0-0.6,0-0.8c-0.1-0.8-0.6-1.4-1.5-1.5C-108.1,180.3-109.8,180.3-111.7,180.3z"/>
<path d="M46.7,10.2c1.3,0,2.5,0,3.7,0c2.6,0,4.3,1.7,4.3,4.3c0,14.4,0,28.8,0,43.2c0,2.8-1.6,4.4-4.4,4.4
	c-10.4,0-20.8,0-31.2,0c-2.8,0-4.4-1.6-4.4-4.4c0-1.2,0-2.3,0-3.6c-0.8,0-1.5,0-2.2,0c-0.8,0-1.7,0-2.5-0.1c-2-0.3-3.3-1.9-3.3-4
	c0-6.9,0-13.8,0-20.6c0-4.4,0-8.9,0-13.3c0-1.3,0.4-2.3,1.3-3.2c3.1-3.1,6.2-6.2,9.3-9.3c0.9-0.9,2-1.4,3.3-1.4c7.2,0,14.5,0,21.7,0
	c2.6,0,4.3,1.7,4.3,4.3C46.7,7.7,46.7,8.9,46.7,10.2z M10.6,16.2c0,0.3,0,0.4,0,0.5c0,10.8,0,21.6,0,32.4c0,0.9,0.4,1.2,1.3,1.2
	c9.8,0,19.7,0,29.5,0c0.9,0,1.3-0.3,1.3-1.3c0-13.8,0-27.7,0-41.5c0-1-0.3-1.3-1.3-1.3c-6.7,0-13.4,0-20.1,0c-0.2,0-0.4,0-0.7,0
	c0,2,0,3.9,0,5.8c0,2.3-1.4,3.9-3.6,4.2c-0.7,0.1-1.5,0-2.2,0C13.5,16.2,12.1,16.2,10.6,16.2z M46.7,14.2c0,0.4,0,0.7,0,1
	c0,11.5,0,23,0,34.5c0,0.6,0,1.1-0.2,1.7c-0.5,1.7-2,2.8-4,2.8c-7.7,0-15.4,0-23.1,0c-0.2,0-0.5,0-0.8,0c0,1,0,1.8,0,2.7
	c0,1.1,0.3,1.4,1.4,1.4c9.7,0,19.5,0,29.2,0c1.2,0,1.5-0.3,1.5-1.5c0-13.7,0-27.5,0-41.2c0-0.2,0-0.3,0-0.5
	c-0.1-0.5-0.4-0.9-0.9-0.9C48.8,14.1,47.8,14.2,46.7,14.2z"/>
</svg>
