<svg version="1.1" xmlns="http://www.w3.org/2000/svg" viewBox="0 0 64 64" style="fill:#E51B48" >
<path d="M55.4,31.7c0,8.4,0,16.8,0,25.2c0,2.7-1.8,4.5-4.5,4.5c-12.5,0-25,0-37.5,0c-2.9,0-4.6-1.8-4.6-4.6
	c0-13.3,0-26.7,0-40c0-1.3,0.4-2.4,1.4-3.3c3.4-3.3,6.7-6.7,10-10c0.9-0.9,2-1.3,3.3-1.3c9.1,0,18.3,0,27.4,0c2.7,0,4.5,1.8,4.5,4.5
	C55.4,14.9,55.4,23.3,55.4,31.7z M23.7,6.2c0,0.1-0.1,0.2-0.1,0.2c0,2,0,3.9,0,5.9c0,2.7-1.8,4.5-4.5,4.5c-1.8,0-3.6,0-5.4,0
	c-0.2,0-0.5,0-0.7,0c0,0.3,0,0.6,0,0.8c0,12.7,0,25.4,0,38.1c0,1.1,0.3,1.4,1.4,1.4c11.7,0,23.5,0,35.2,0c1.3,0,1.6-0.3,1.6-1.6
	c0-16,0-31.9,0-47.9c0-1.1-0.3-1.5-1.4-1.5c-8.5,0-16.9,0-25.4,0C24.2,6.2,24,6.2,23.7,6.2z"/>
</svg>
