<svg version="1.1" xmlns="http://www.w3.org/2000/svg" viewBox="0 0 64 64" style="fill:#E51B48" >
<path d="M27.3,32.1c0,8.6,0,17.2,0,25.8c0,1.7-0.6,2.3-2.3,2.3c-3.2,0-6.4,0-9.7,0c-1.4,0-2.1-0.7-2.1-2.1
	c0-17.4,0-34.7,0-52.1c0-1.4,0.7-2.1,2.1-2.1c3.3,0,6.6,0,9.9,0c1.4,0,2.1,0.7,2.1,2.1C27.3,14.7,27.3,23.4,27.3,32.1z"/>
<path d="M36.7,32c0-8.6,0-17.3,0-25.9c0-1.6,0.6-2.2,2.2-2.2c3.2,0,6.5,0,9.7,0c1.4,0,2.1,0.7,2.1,2.1
	c0,17.4,0,34.7,0,52.1c0,1.4-0.7,2.1-2.1,2.1c-3.2,0-6.5,0-9.7,0c-1.6,0-2.2-0.6-2.2-2.2C36.7,49.3,36.7,40.6,36.7,32z"/>
</svg>
