<svg xmlns="http://www.w3.org/2000/svg"
     viewBox="0 0 64 64"
     version="1.1"
     style="fill:#D0D0D0" >
    <path d="M55.4,31.7V56.9a4.25,4.25,0,0,1-4.5,4.5H13.4a4.26,4.26,0,0,1-4.6-4.6v-40a4.18,4.18,0,0,1,1.4-3.3c3.4-3.3,6.7-6.7,10-10a4.45,4.45,0,0,1,3.3-1.3H50.9a4.25,4.25,0,0,1,4.5,4.5ZM23.7,6.2a.35.35,0,0,1-.1.2v5.9a4.25,4.25,0,0,1-4.5,4.5H13V55.7c0,1.1.3,1.4,1.4,1.4H49.6c1.3,0,1.6-.3,1.6-1.6V7.6c0-1.1-.3-1.5-1.4-1.5H24.4A1.48,1.48,0,0,1,23.7,6.2Z"/>
    <path d="M20,42.71a18.48,18.48,0,0,1,3-.21,4.77,4.77,0,0,1,3,.8,2.91,2.91,0,0,1,1.06,2.3A3.18,3.18,0,0,1,26.24,48,4.61,4.61,0,0,1,23,49a5.51,5.51,0,0,1-.77,0v3.55H20Zm2.23,4.51a3.38,3.38,0,0,0,.75.06c1.19,0,1.93-.6,1.93-1.62s-.63-1.46-1.75-1.46a3.85,3.85,0,0,0-.93.09Z"/>
    <path d="M28.59,42.71a20.17,20.17,0,0,1,3-.21,6.39,6.39,0,0,1,4.07,1.06,4.4,4.4,0,0,1,1.68,3.74,5,5,0,0,1-1.65,4,7.14,7.14,0,0,1-4.58,1.28,19.54,19.54,0,0,1-2.55-.15Zm2.26,8.11a4.16,4.16,0,0,0,.78,0c2,0,3.36-1.11,3.36-3.48a2.85,2.85,0,0,0-3.12-3.15,4.62,4.62,0,0,0-1,.09Z"/>
    <path d="M38.85,42.58h6.07v1.84H41.11v2.27h3.57v1.83H41.11v4H38.85Z"/>
    <rect x="19.05" y="34.8" width="25.9" height="2.5"/>
    <rect x="19.05" y="28.47" width="25.9" height="2.5"/>
    <rect x="19.05" y="22.15" width="25.9" height="2.5"/>
</svg>