<svg version="1.1" xmlns="http://www.w3.org/2000/svg" viewBox="0 0 64 64" style="fill:#E51B48" >
<path d="M32,61.7c-8.8,0-17.6,0-26.4,0c-0.4,0-0.7,0-1.1-0.1c-1.3-0.2-1.9-1.1-1.5-2.3c0.7-2.5,2.1-4.4,4.2-5.8
	c2.4-1.6,5.1-2.6,7.8-3.7c2.3-0.9,4.5-1.9,6.7-2.9c0.8-0.4,1.5-1,2.1-1.5c0.6-0.5,0.7-1.1,0.3-1.9c-1.7-3.6-3.3-7.2-4.9-10.8
	c-0.1-0.3-0.4-0.6-0.6-0.7c-2.4-0.7-2.9-2.7-3.5-4.7c-0.2-0.6-0.2-1.2-0.2-1.9c0-1.6,0.6-2.4,2.1-2.9c0.5-0.2,1.1-0.2,1.3-0.5
	c0.2-0.3,0-0.9,0-1.4c-0.1-2.1-0.3-4.3-0.2-6.4c0-2.2,0.5-4.4,1.8-6.3c1.2-1.7,2.7-3,4.8-3.5c1.1-0.3,2.3-0.2,3.4,0.3
	c1,0.5,1.9,0.4,2.8-0.2c2.1-1.3,4.4-2.2,6.9-2.2c2.1,0,4,0.7,5.6,2.1c2.4,2.2,3.9,4.9,4.4,8.1c0.3,2.4,0.1,4.7-0.2,7.1
	c-0.1,0.7-0.2,1.3-0.3,2c-0.1,0.4,0,0.7,0.4,0.9c0.2,0.1,0.3,0.2,0.5,0.3c1.9,1.3,2.4,2.4,1.9,4.7c-0.2,0.7-0.4,1.5-0.6,2.1
	c-0.4,1-1,1.7-2,2.1c-1.2,0.5-1.9,1.3-2.2,2.5c-0.3,0.9-0.6,1.8-0.9,2.7c-0.6,1.8-1.6,3.4-2.7,4.9c-0.5,0.8-1,1.6-1.4,2.4
	c-0.2,0.4-0.1,0.6,0.2,0.9c1.7,1.8,4,2.8,6.2,3.7c3,1.2,5.9,2.5,8.8,3.9c2.2,1,3.9,2.7,4.9,5c0.3,0.5,0.5,1.1,0.6,1.7
	c0.2,1-0.3,1.9-1.3,2.1c-0.4,0.1-0.8,0.1-1.2,0.1c-4.7,0-9.3,0-14,0C40.4,61.7,36.2,61.7,32,61.7C32,61.7,32,61.7,32,61.7z"/>
</svg>
