<svg version="1.1" xmlns="http://www.w3.org/2000/svg" viewBox="0 0 64 64" style="fill:#E51B48" >
<path d="M61,3c0,4.8,0,9.6,0,14.4c-4.8,0-9.6,0-14.5,0c0-4.8,0-9.6,0-14.4C51.4,3,56.2,3,61,3z"/>
<path d="M34,27.8c-4.8,0-9.6,0-14.4,0c0-4.8,0-9.6,0-14.5c4.8,0,9.6,0,14.4,0C34,18.1,34,22.9,34,27.8z"/>
<path d="M17.4,13.4c0,4.8,0,9.6,0,14.4c-4.8,0-9.6,0-14.5,0c0-4.8,0-9.6,0-14.4C7.8,13.4,12.6,13.4,17.4,13.4z"/>
<path d="M34,46.6c0,4.8,0,9.6,0,14.4c-4.8,0-9.6,0-14.5,0c0-4.8,0-9.6,0-14.4C24.4,46.6,29.2,46.6,34,46.6z"/>
<path d="M3,46.5c4.8,0,9.6,0,14.4,0c0,4.8,0,9.6,0,14.5c-4.8,0-9.6,0-14.4,0C3,56.2,3,51.4,3,46.5z"/>
<path d="M17.4,44.4c-4.8,0-9.6,0-14.4,0c0-4.8,0-9.6,0-14.5c4.8,0,9.6,0,14.4,0C17.4,34.8,17.4,39.6,17.4,44.4z"/>
<path d="M34,44.4c-4.8,0-9.6,0-14.4,0c0-4.8,0-9.6,0-14.5c4.8,0,9.6,0,14.4,0C34,34.8,34,39.6,34,44.4z"/>
<path d="M50.6,61c-4.8,0-9.6,0-14.5,0c0-4.8,0-9.6,0-14.4c4.8,0,9.6,0,14.5,0C50.6,51.4,50.6,56.2,50.6,61z"/>
<path d="M36.2,44.4c0-4.8,0-9.6,0-14.4c4.8,0,9.6,0,14.5,0c0,4.8,0,9.6,0,14.4C45.8,44.4,41,44.4,36.2,44.4z"/>
</svg>
