<svg version="1.1" xmlns="http://www.w3.org/2000/svg" viewBox="0 0 64 64" style="fill:#E51B48">
<path d="M22.5,53.2c0-4.9,0-9.8,0-14.6c5,0,10,0,15,0c0,4.9,0,9.8,0,14.6c-0.3,0.1-0.6,0.2-0.8,0.2
	c-4.4,0-8.9,0-13.3,0C23.1,53.4,22.8,53.3,22.5,53.2z M33.7,49.7c0-2.5,0-5,0-7.4c-2.5,0-4.9,0-7.4,0c0,2.3,0,4.6,0,6.9
	c0,0.2,0.3,0.5,0.5,0.5C29.1,49.7,31.3,49.7,33.7,49.7z"/>
<path d="M45.2,32.1c0-4.9,0-9.8,0-14.6c5,0,10,0,15,0c0,4.9,0,9.8,0,14.6c-0.3,0.1-0.6,0.2-0.8,0.2
	c-4.4,0-8.9,0-13.3,0C45.8,32.3,45.5,32.2,45.2,32.1z M56.4,28.6c0-2.5,0-5,0-7.4c-2.5,0-4.9,0-7.4,0c0,2.3,0,4.6,0,6.9
	c0,0.2,0.3,0.5,0.5,0.5C51.8,28.6,54,28.6,56.4,28.6z"/>
<path d="M3.8,33.9c0-4.9,0-9.8,0-14.6c5,0,10,0,15,0c0,4.9,0,9.8,0,14.6c-0.3,0.1-0.6,0.2-0.8,0.2
	c-4.4,0-8.9,0-13.3,0C4.3,34.1,4.1,34,3.8,33.9z M14.9,30.4c0-2.5,0-5,0-7.4c-2.5,0-4.9,0-7.4,0c0,2.3,0,4.6,0,6.9
	c0,0.2,0.3,0.5,0.5,0.5C10.3,30.4,12.6,30.4,14.9,30.4z"/>
<path d="M24,28.3c0-4.9,0-9.8,0-14.6c5,0,10,0,15,0c0,4.9,0,9.8,0,14.6c-0.3,0.1-0.6,0.2-0.8,0.2
	c-4.4,0-8.9,0-13.3,0C24.6,28.5,24.3,28.4,24,28.3z M35.2,24.8c0-2.5,0-5,0-7.4c-2.5,0-4.9,0-7.4,0c0,2.3,0,4.6,0,6.9
	c0,0.2,0.3,0.5,0.5,0.5C30.5,24.8,32.8,24.8,35.2,24.8z"/>
</svg>
