<svg version="1.1" xmlns="http://www.w3.org/2000/svg" viewBox="0 0 64 64" style="fill:#E51B48" >
<path d="M9.5,36.1c1.1,0,2.2,0,3.3,0c0,3.6,0,7.1,0,10.7c-3.5,0-7,0-10.5,0c0-3.5,0-7.1,0-10.6c1.2,0,2.4,0,3.6,0
	c0.6,0,0.8-0.1,1-0.7c2.8-10,9.2-16.4,19.3-19c0.1,0,0.1,0,0.2-0.1c0-1.5,0-3,0-4.5c3.6,0,7,0,10.6,0c0,1.5,0,3,0,4.5
	c1.1,0.3,2.1,0.6,3.1,1c8.6,3.2,14.1,9.3,16.5,18.2c0.1,0.5,0.3,0.6,0.8,0.6c1.3,0,2.6,0,4,0c0,3.6,0,7.1,0,10.6c-3.5,0-7,0-10.5,0
	c0-3.5,0-7,0-10.6c1,0,2,0,3,0c-1.6-8-8.7-15.3-17-17c0,1.1,0,2.2,0,3.3c-3.6,0-7,0-10.6,0c0-1.1,0-2.2,0-3.3
	C19.3,20.6,11.6,27.1,9.5,36.1z M29.3,14.5c0,1.8,0,3.6,0,5.3c1.8,0,3.5,0,5.2,0c0-1.8,0-3.5,0-5.3C32.7,14.5,31,14.5,29.3,14.5z
	 M59,44.1c0-1.8,0-3.5,0-5.3c-1.8,0-3.5,0-5.2,0c0,1.8,0,3.5,0,5.3C55.5,44.1,57.3,44.1,59,44.1z M5,44.1c1.8,0,3.5,0,5.3,0
	c0-1.8,0-3.5,0-5.3c-1.8,0-3.5,0-5.3,0C5,40.6,5,42.3,5,44.1z"/>
</svg>
