<svg version="1.1" xmlns="http://www.w3.org/2000/svg" viewBox="0 0 64 64" style="fill:#E51B48">
<path d="M52.1,48.9c0,3.7,0,7.3,0,10.9c0,1.5-0.7,2.3-2.3,2.3C38,62,26,62,14.1,62c-1.5,0-2.3-0.7-2.3-2.3
	c0-3.6,0-7.2,0-10.9c-0.2,0-0.4,0-0.6,0c-1.5,0-3,0.1-4.4-0.1C4.1,48.4,2,46.1,2,43.4c0-6.9,0-13.9,0-20.8C2,19.5,4.5,17,7.6,17
	c1.4,0,2.8,0,4.2,0c0-0.3,0-0.5,0-0.7c0-4,0-8.1,0-12.1C11.8,2.7,12.6,2,14,2C26,2,38,2,49.9,2c1.5,0,2.2,0.7,2.2,2.2
	c0,4,0,8,0,12.1c0,0.2,0,0.4,0,0.7c0.3,0,0.5,0,0.8,0c1.4,0,2.9-0.1,4.3,0.1c2.7,0.3,4.7,2.7,4.8,5.4c0,7,0,13.9,0,20.9
	c0,3-2.5,5.5-5.6,5.5C55,48.9,53.6,48.9,52.1,48.9z M11.8,45.1c0-0.3,0-0.5,0-0.7c0-3.4,0-6.8,0-10.3c0-1.4,0.7-2.2,2.2-2.2
	c12,0,24,0,36,0c1.4,0,2.2,0.7,2.2,2.2c0,3.4,0,6.9,0,10.3c0,0.2,0,0.4,0,0.7c1.4,0,2.8,0,4.1,0c1.2,0,2-0.8,2-2
	c0-6.8,0-13.6,0-20.3c0-1.3-0.7-2-2-2c-16.1,0-32.3,0-48.4,0c-1.3,0-2,0.7-2,2c0,2.9,0,5.7,0,8.6c0,4,0,7.9,0,11.9
	c0,1,0.7,1.9,1.6,1.9C8.8,45.2,10.3,45.1,11.8,45.1z M48.4,35.8c-11,0-21.9,0-32.7,0c0,7.5,0,15,0,22.4c10.9,0,21.8,0,32.7,0
	C48.4,50.7,48.4,43.3,48.4,35.8z M15.6,17c11,0,21.9,0,32.7,0c0-3.8,0-7.5,0-11.2c-10.9,0-21.8,0-32.7,0C15.6,9.5,15.6,13.2,15.6,17
	z"/>
<path d="M52.6,24.5c1,0,1.9,0.8,1.9,1.8c0,1-0.9,1.9-1.9,1.9c-1,0-1.9-0.9-1.9-1.9C50.7,25.4,51.6,24.5,52.6,24.5z"/>
<path d="M32,43.3c-3.6,0-7.2,0-10.8,0c-0.9,0-1.5-0.5-1.8-1.2c-0.2-0.8,0-1.7,0.7-2.1c0.3-0.2,0.8-0.3,1.2-0.3
	c7.1,0,14.3,0,21.4,0c1,0,1.8,0.6,1.9,1.5c0.1,0.9-0.3,1.8-1.2,2.1c-0.3,0.1-0.5,0.1-0.8,0.1C39.1,43.3,35.6,43.3,32,43.3z"/>
<path d="M32,50.8c-3.6,0-7.2,0-10.8,0c-0.8,0-1.5-0.4-1.8-1.2c-0.3-0.8,0-1.7,0.6-2.1c0.3-0.2,0.8-0.4,1.2-0.4
	c7.1,0,14.2,0,21.4,0c1,0,1.8,0.6,1.9,1.5c0.1,0.9-0.3,1.8-1.2,2.1c-0.2,0.1-0.5,0.1-0.7,0.1C39.1,50.8,35.6,50.8,32,50.8z"/>
</svg>
