<svg version="1.1" xmlns="http://www.w3.org/2000/svg" viewBox="-447 249 64 64" style="fill:#E51B48" >
<path d="M-397.2,254.7c-0.4,3.1-0.7,6.2-1.1,9.3c0,0,0,0,0,0c-0.6-1.1-1.2-2.1-1.9-3.2c-0.8,1.3-1.5,2.5-2.2,3.8
	c-0.5-0.3-1.1-0.6-1.6-0.9c0.7-1.3,1.5-2.5,2.2-3.8c-1.2-0.1-2.3-0.3-3.5-0.4C-402.6,257.8-399.9,256.3-397.2,254.7z"/>
<rect x="-415" y="252.8" width="2.6" height="56.5"/>
<rect x="-443.3" y="281" width="56.5" height="2.6"/>
<path d="M-405.1,269.3c5.3,2.3,8,6.2,8.1,12c5.3,0-2.9,0,2.5,0c0,0.7,0,1.3,0,2c-11.4,0-9.1,0-20.5,0
	c0-0.4-0.1-0.9,0.1-1.3c5.6-9.6,8.4-14.4,14-24c0.1-0.1,0.1-0.2,0.2-0.4c0.6,0.3,1.1,0.7,1.7,1
	C-401.9,263.8-402.2,264.1-405.1,269.3z M-412.1,281.3c4.5,0,9,0,13.6,0c-0.1-0.7-0.1-1.5-0.2-2.2c-0.7-4.1-3.1-6.8-6.9-8.3
	c-0.2-0.1-0.4-0.1-0.5,0.2c-1.6,2.7-3.1,5.4-4.7,8.1C-411.2,279.8-411.6,280.5-412.1,281.3z"/>
</svg>
