<svg version="1.1" xmlns="http://www.w3.org/2000/svg" viewBox="-447 249 64 64" style="fill:#E51B48">
<path d="M-404.6,288.4c3.8,2.8,7.5,5.6,11.2,8.4c0,0,0,0,0,0.1c-1.8,0-3.7,0-5.6,0c1.1,1.9,2.1,3.8,3.2,5.7
	c-0.8,0.5-1.6,0.9-2.4,1.4c-1.1-1.9-2.2-3.8-3.3-5.7c-1.1,1.4-2.1,2.8-3.2,4.3C-404.6,297.8-404.6,293.1-404.6,288.4z"/>
<rect x="-434" y="253.2" width="2.5" height="55.5"/>
<rect x="-411.3" y="253.2" width="2.5" height="55.5"/>
<rect x="-436.6" y="279.7" width="7.6" height="2.5"/>
<rect x="-413.9" y="279.7" width="7.6" height="2.5"/>
</svg>
