<svg version="1.1" xmlns="http://www.w3.org/2000/svg" viewBox="0 0 64 64" style="fill:#E51B48">
<path d="M8.5,44c0-1.4,0-2.6,0-3.9c16,0,31.9,0,47.9,0c0,1.2,0,2.5,0,3.8c-7.3,0-14.6,0-21.9,0c0,3.3,0,6.6,0,10
	c1.9,0,3.8,0,5.8,0c-2.7,2.7-5.3,5.3-7.8,7.8c-2.5-2.6-5.2-5.2-7.8-7.8c1.8,0,3.7,0,5.7,0c0-3.3,0-6.6,0-10C23.2,44,15.9,44,8.5,44z
	"/>
<path d="M40.2,9.9c-1.8,0-3.7,0-5.6,0c0,3.4,0,6.6,0,10c7.3,0,14.6,0,21.9,0c0,1.3,0,2.6,0,3.9c-16,0-31.9,0-47.9,0
	c0-1.3,0-2.6,0-3.9c7.3,0,14.6,0,21.9,0c0-3.3,0-6.6,0-10c-1.9,0-3.8,0-5.7,0c2.6-2.6,5.2-5.2,7.7-7.8C35,4.7,37.6,7.3,40.2,9.9z"/>
<path d="M54.5,33.4c0-0.8,0-1.5,0-2.2c2.8,0,5.5,0,8.3,0c0,0.7,0,1.4,0,2.2C60,33.4,57.3,33.4,54.5,33.4z"/>
<path d="M52.3,33.4c-2.8,0-5.5,0-8.3,0c0-0.7,0-1.4,0-2.2c2.8,0,5.5,0,8.3,0C52.3,31.9,52.3,32.6,52.3,33.4z"/>
<path d="M33.5,33.4c0-0.8,0-1.4,0-2.2c2.8,0,5.5,0,8.3,0c0,0.7,0,1.4,0,2.2C39.1,33.4,36.3,33.4,33.5,33.4z"/>
<path d="M23,31.2c2.8,0,5.5,0,8.3,0c0,0.7,0,1.4,0,2.2c-2.8,0-5.5,0-8.3,0C23,32.6,23,31.9,23,31.2z"/>
<path d="M12.5,33.4c0-0.8,0-1.4,0-2.2c2.8,0,5.5,0,8.3,0c0,0.7,0,1.4,0,2.2C18.1,33.4,15.3,33.4,12.5,33.4z"/>
<path d="M10.4,31.2c0,0.7,0,1.4,0,2.2c-2.8,0-5.5,0-8.3,0c0-0.7,0-1.4,0-2.2C4.8,31.2,7.6,31.2,10.4,31.2z"/>
</svg>
