<svg version="1.1" xmlns="http://www.w3.org/2000/svg" viewBox="0 0 64 64" style="fill:#E51B48">
<path d="M2.6,38c2,0.5,4,1,6,1.6c3.9,1,7.8,2.1,11.7,3.1c0.1,0,0.2,0.1,0.2,0.1c-1.6,1.5-3.1,3.1-4.7,4.7
	c1.1,0.9,2,1.8,3.1,2.5c4.2,3,8.8,4.3,14,4.1c10-0.4,18.4-7.7,20.5-17.4c0.3-1.5,1.8-2.5,3.2-2.2c1.5,0.3,2.4,1.8,2,3.3
	c-2.8,11-9.7,18.2-20.7,20.9c-8.9,2.1-16.9,0-24-5.8c-0.3-0.2-0.6-0.5-0.9-0.8c-0.3-0.3-0.6-0.5-0.9-0.8c-1.5,1.6-3.1,3.1-4.7,4.7
	c-0.3-1-0.5-1.8-0.7-2.7c-1.3-5-2.7-10-4-15.1c0-0.1-0.1-0.2-0.1-0.2C2.6,38.1,2.6,38,2.6,38z"/>
<path d="M60.2,26.3c-2.3-0.6-4.5-1.2-6.8-1.8c-3.6-1-7.3-1.9-10.9-2.9c-0.1,0-0.2-0.1-0.2-0.1
	c1.5-1.5,3.1-3.1,4.7-4.7c-1.1-0.9-2-1.8-3.1-2.5c-4.2-3-8.9-4.3-14-4.1C20,10.7,11.5,17.8,9.4,27.5c-0.3,1.3-1.3,2.2-2.5,2.2
	c-1.3,0.1-2.5-0.7-2.7-1.9c-0.1-0.8-0.1-1.6,0.2-2.4C7.5,14.6,14.6,7.7,25.7,5.4C35,3.4,43.2,6,50.2,12.5c0.1,0.1,0.3,0.3,0.4,0.4
	c1.5-1.6,3.1-3.1,4.7-4.7c0.2,0.7,0.4,1.2,0.5,1.8c1.4,5.3,2.8,10.6,4.3,15.9c0,0.1,0.1,0.2,0.1,0.2C60.2,26.2,60.2,26.3,60.2,26.3z
	"/>
</svg>
