<svg version="1.1" xmlns="http://www.w3.org/2000/svg" viewBox="-447 249 64 64" style="fill:#E51B48">
<path d="M-392.1,281c0,8.2,0,16.5,0,24.7c0,2.6-1.8,4.4-4.4,4.4c-12.3,0-24.5,0-36.8,0c-2.8,0-4.5-1.7-4.5-4.5c0-13.1,0-26.2,0-39.3
	c0-1.3,0.4-2.4,1.3-3.3c3.3-3.3,6.6-6.6,9.8-9.8c0.9-0.9,2-1.3,3.2-1.3c9,0,18,0,26.9,0c2.7,0,4.4,1.8,4.4,4.4
	C-392.1,264.5-392.1,272.8-392.1,281z M-423.3,256c0,0.1-0.1,0.2-0.1,0.2c0,1.9,0,3.9,0,5.8c0,2.6-1.8,4.4-4.4,4.4
	c-1.8,0-3.5,0-5.3,0c-0.2,0-0.5,0-0.7,0c0,0.3,0,0.6,0,0.8c0,12.5,0,24.9,0,37.4c0,1.1,0.3,1.4,1.4,1.4c11.5,0,23.1,0,34.6,0
	c1.3,0,1.5-0.3,1.5-1.6c0-15.7,0-31.4,0-47c0-1.1-0.3-1.4-1.4-1.4c-8.3,0-16.6,0-24.9,0C-422.8,256-423,256-423.3,256z"/>
<path d="M-412.9,274.6c0,1.2-0.9,2.2-2.3,2.2c-1.4,0-2.3-1-2.3-2.2c0-1.2,0.9-2.2,2.3-2.2C-413.8,272.4-412.9,273.4-412.9,274.6z
		 M-417.4,292.5v-14h4.4v14H-417.4z"/>
</svg>
