<svg version="1.1" xmlns="http://www.w3.org/2000/svg" viewBox="0 0 64 64" style="fill:#E51B48">
<path d="M32,5.7c8.7,0,16.4,6.2,18.2,14.9c0.2,0.9,0.2,1.7,0.4,2.6c0,0.3,0.2,0.6,0.5,0.7c2.8,1.9,5,4.4,6.5,7.5
	c1.6,3.2,2.1,6.6,1.7,10.2c-0.9,8-6.9,14.6-14.8,16.2c-4.2,0.9-8.2,0.3-12-1.5c-0.4-0.2-0.8-0.2-1.2,0c-2.9,1.4-6,2.1-9.2,1.9
	c-8.8-0.5-15.8-6.9-17.3-15c-1.5-8,1.3-14.4,7.9-19.2c0.4-0.3,0.5-0.6,0.6-1c0.3-3.5,1.4-6.6,3.5-9.4c2.9-4,6.8-6.5,11.7-7.4
	C29.7,5.9,30.9,5.9,32,5.7z M13.9,29.4c-4.2,3.4-6.4,10.9-2.6,17.3c4,6.7,11.8,7.7,16,6c-0.1-0.1-0.2-0.2-0.2-0.3
	c-3-3.2-4.7-7-5-11.4c0-0.3-0.3-0.7-0.5-0.8c-3.1-2.2-5.5-5-6.9-8.5C14.4,30.9,14.2,30.2,13.9,29.4z M36.6,52.7
	c5.3,1.9,12.9,0,16.4-6.7c3.3-6.1,1.2-13.2-2.9-16.6c-0.1,0.2-0.1,0.4-0.2,0.5c-1.3,4.2-3.8,7.6-7.4,10c-0.4,0.3-0.6,0.6-0.6,1.1
	c-0.3,3.7-1.6,7.1-3.9,10C37.5,51.6,37.1,52.1,36.6,52.7z M18.6,21.4c1.1-0.2,2.1-0.4,3.1-0.5c3.4-0.2,6.6,0.3,9.6,1.8
	c0.5,0.2,0.9,0.2,1.4,0c3.2-1.6,6.7-2.1,10.2-1.7c0.8,0.1,1.6,0.3,2.6,0.4c-0.6-2.7-1.9-4.9-3.8-6.8c-3-2.9-6.5-4.1-10.6-3.9
	C24.2,11.1,19.4,16.6,18.6,21.4z M31.9,38.5c0-0.1,0-0.1,0-0.2c1.5,0,3-0.3,4.4-0.7c0.4-0.1,0.5-0.3,0.4-0.7
	c-0.6-3.1-2.1-5.7-4.4-7.8c-0.4-0.3-0.6-0.3-0.9,0c-2.3,2.1-3.7,4.7-4.4,7.7c-0.1,0.4,0.1,0.6,0.5,0.7
	C29.1,37.9,30.5,38.2,31.9,38.5z M27.4,26.4c-0.2-0.1-0.2-0.2-0.3-0.2c-2.8-0.8-5.7-0.8-8.5,0.2c-0.3,0.1-0.4,0.3-0.3,0.6
	c0.5,2.7,1.8,5.1,3.7,7.1c0.2,0.2,0.4,0.3,0.6,0.5C23.6,31.5,25.1,28.8,27.4,26.4z M36.5,26.3c2.4,2.4,3.9,5.2,4.8,8.3
	c0.1-0.1,0.2-0.1,0.2-0.1c0.1-0.1,0.2-0.2,0.3-0.3c1.9-2,3.1-4.3,3.7-6.9c0.1-0.6-0.1-0.8-0.6-0.9c-2.1-0.7-4.3-0.8-6.5-0.5
	C37.9,25.9,37.3,26.1,36.5,26.3z M27.4,42.6c0,0.1,0,0.2,0,0.2c0,0.1,0,0.2,0.1,0.3c0.7,2.7,2.2,4.9,4.2,6.8c0.3,0.3,0.5,0.2,0.7,0
	c2-1.8,3.5-4.1,4.2-6.7c0.1-0.2,0-0.4,0.1-0.6C33.5,43.4,30.5,43.4,27.4,42.6z"/>
</svg>
