<svg version="1.1" xmlns="http://www.w3.org/2000/svg" viewBox="0 0 64 64" style="fill:#E51B48">
<path d="M32,1.7c5.2,6,10.4,11.9,15.6,17.8c-10.4,0-20.8,0-31.2,0C21.6,13.6,26.8,7.7,32,1.7z"/>
<path d="M47.6,44.5c-5.2,6-10.4,11.9-15.6,17.8c-5.2-6-10.4-11.8-15.6-17.8C26.8,44.5,37.1,44.5,47.6,44.5z"/>
<path d="M38.6,40.6c-4.4,0-8.8,0-13.2,0c0,0-0.1,0-0.1,0c-0.7-0.2-1.1-0.7-1.2-1.3c0-0.1,0-0.1,0-0.2
	c0-2.6,0-5.3,0-7.9c0-0.4,0.1-0.8,0.4-1.1c0.3-0.4,0.7-0.5,1.2-0.6c0.3,0,0.5,0,0.8,0c0-0.8,0-1.7,0-2.5c0-2.4,1.7-4.6,4-5.2
	c0.3-0.1,0.7-0.1,1-0.2c0.4,0,0.7,0,1.1,0c0.1,0,0.3,0.1,0.4,0.1c2.6,0.4,4.5,2.7,4.6,5.3c0,0.8,0,1.6,0,2.4c0,0.1,0,0.1,0,0.2
	c0.2,0,0.5,0,0.7,0c1,0,1.7,0.7,1.7,1.7c0,1.5,0,3.1,0,4.6c0,1.1,0,2.1,0,3.2C39.9,39.8,39.4,40.4,38.6,40.6
	C38.6,40.6,38.6,40.6,38.6,40.6z M35.2,29.5c0-0.1,0-0.1,0-0.1c0-0.8,0-1.5,0-2.3c0-0.2,0-0.4-0.1-0.6c-0.4-1.6-1.8-2.7-3.4-2.5
	c-1.6,0.2-2.8,1.5-2.8,3.2c0,0.7,0,1.5,0,2.2c0,0,0,0.1,0,0.2C30.9,29.5,33,29.5,35.2,29.5z"/>
</svg>
