<svg version="1.1" xmlns="http://www.w3.org/2000/svg" viewBox="0 0 64 64" style="fill:#E51B48">
<path d="M41.2,45.6c-11.7,8.9-26.6,5.3-34-4C-0.6,31.7,0.5,17.6,9.3,9C18.2,0.5,32-0.2,41.6,7.6
	c9.6,7.8,12.4,22.5,3.8,33.8c0.2,0.2,0.3,0.4,0.5,0.5c4.9,4.9,9.8,9.8,14.8,14.8c1.1,1.1,1.3,2.6,0.5,3.8c-1,1.6-3.2,1.8-4.5,0.4
	c-1.5-1.5-3-3-4.5-4.5c-3.5-3.5-7-7-10.5-10.5C41.5,45.8,41.4,45.7,41.2,45.6z M26.2,8C16,8,7.8,16.3,7.8,26.4
	c0,10.1,8.3,18.4,18.4,18.4c10.2,0,18.4-8.3,18.4-18.4C44.6,16.3,36.4,8,26.2,8z"/>
</svg>
