<svg version="1.1" xmlns="http://www.w3.org/2000/svg" viewBox="-447 249 64 64" style="fill:#E51B48">
<path d="M-440.6,260.2c-1.2,0-2.4,0-3.5,0c0-2.9,0-5.8,0-8.8c2.9,0,5.8,0,8.8,0c0,1.1,0,2.3,0,3.5c-1.7,0-3.5,0-5.2,0C-440.6,256.7-440.6,258.4-440.6,260.2z"/>
<path d="M-391.2,260.2c-1.2,0-2.3,0-3.5,0c0-1.7,0-3.5,0-5.3c-1.8,0-3.5,0-5.3,0c0-1.2,0-2.3,0-3.5c2.9,0,5.8,0,8.8,0C-391.2,254.3-391.2,257.2-391.2,260.2z"/>
<path d="M-400,289.9c5.1,3.8,10.1,7.5,15.1,11.3c0,0,0,0,0,0.1c-2.5,0-4.9,0-7.5,0c1.5,2.6,2.9,5.1,4.3,7.7c-1.1,0.6-2.1,1.2-3.2,1.9c-1.5-2.6-2.9-5.1-4.4-7.7c-1.4,1.9-2.8,3.8-4.3,5.7C-400,302.5-400,296.3-400,289.9z"/>
<path d="M-440.7,300.9c1.8,0,3.5,0,5.3,0c0,1.2,0,2.3,0,3.5c-2.9,0-5.8,0-8.8,0c0-2.9,0-5.8,0-8.8c1.2,0,2.3,0,3.5,0C-440.7,297.4-440.7,299.1-440.7,300.9z"/>
<path d="M-428.2,300.9c2.9,0,5.8,0,8.8,0c0,1.2,0,2.3,0,3.5c-2.9,0-5.8,0-8.8,0C-428.2,303.2-428.2,302.1-428.2,300.9z"/>
<path d="M-412.4,304.4c0-1.2,0-2.3,0-3.5c2.3,0,4.7,0,7,0c0,1.2,0,2.3,0,3.5C-407.7,304.4-410,304.4-412.4,304.4z"/>
<path d="M-391.2,288.5c-1.2,0-2.3,0-3.5,0c0-2.3,0-4.7,0-7c1.2,0,2.3,0,3.5,0C-391.2,283.8-391.2,286.1-391.2,288.5z"/>
<path d="M-444.2,281.4c1.2,0,2.3,0,3.4,0c0,2.3,0,4.7,0,7c-1.1,0-2.3,0-3.4,0C-444.2,286.1-444.2,283.8-444.2,281.4z"/>
<path d="M-391.2,274.3c-1.2,0-2.3,0-3.5,0c0-2.3,0-4.7,0-7c1.2,0,2.3,0,3.5,0C-391.2,269.7-391.2,272-391.2,274.3z"/>
<path d="M-440.7,274.3c-1.2,0-2.3,0-3.5,0c0-2.3,0-4.7,0-7c1.1,0,2.3,0,3.5,0C-440.7,269.7-440.7,272-440.7,274.3z"/>
<path d="M-407.1,254.9c-2.3,0-4.6,0-7,0c0-1.2,0-2.3,0-3.5c2.3,0,4.6,0,7,0C-407.1,252.5-407.1,253.7-407.1,254.9z"/>
<path d="M-421.2,251.4c0,0.2,0,0.4,0,0.5c0,1,0,1.9,0,2.9c-2.4,0-4.7,0-7,0c0-1.1,0-2.3,0-3.5C-425.9,251.4-423.6,251.4-421.2,251.4z"/>
</svg>
