<svg version="1.1" xmlns="http://www.w3.org/2000/svg" viewBox="0 0 64 64" style="fill:#E51B48">
<path d="M5.9,53c0.6-1.4,1.6-2,3.2-1.9c0.5,0,1,0,1.6,0c1.6-3.6,4.2-5.7,8.2-5.7c4,0,6.6,2.1,8.2,5.7
	c0.3,0,0.5,0,0.8,0c8.9,0,17.8,0,26.7,0c1.5,0,2.6,0.5,3.2,2c0,0.5,0,1,0,1.4c-0.6,1.5-1.8,1.9-3.3,1.9c-8.8,0-17.6,0-26.4,0
	c-0.3,0-0.5,0-0.8,0c-1.4,3.7-3.8,6.1-7.8,6.3c-4.5,0.2-7.4-2.2-9-6.3c-1.8,0-3.7,0.3-4.5-1.9C5.9,54,5.9,53.5,5.9,53z"/>
<path d="M57.7,10.3c-0.6,1.5-1.7,2-3.2,2c-8.8,0-17.6,0-26.4,0c-0.3,0-0.6,0-0.9,0c-1.5,4.1-4.4,6.4-8.9,6.3
	c-3.7-0.1-5.9-2-7.9-6.3c-0.4,0-0.9,0-1.4,0c-1.5,0.1-2.6-0.5-3.2-1.9c0-0.5,0-1,0-1.4c0.6-1.4,1.7-2,3.2-1.9c0.5,0,1,0,1.5,0
	c1.6-3.6,4.3-5.7,8.2-5.7c3.9,0,6.6,2.1,8.2,5.7c0.3,0,0.6,0,0.9,0c8.8,0,17.7,0,26.5,0c1.5,0,2.7,0.5,3.3,1.9
	C57.7,9.4,57.7,9.9,57.7,10.3z"/>
<path d="M5.9,30.6c0.5-1.5,1.7-2,3.2-2c8.8,0,17.7,0,26.5,0c0.3,0,0.6,0,0.9,0c2.8-7.5,13.5-7.7,16.5,0
	c0.5,0,1.1,0,1.6,0c1.5-0.1,2.6,0.6,3.1,2c0,0.4,0,0.9,0,1.3c-0.3,0.9-0.9,1.6-1.8,1.8c-0.9,0.2-1.8,0.1-2.7,0.2
	c-1.5,4.1-4.4,6.4-9,6.3c-1.2,0-2.3-0.4-3.4-0.9c-1.1-0.6-2.1-1.3-2.8-2.3c-0.7-1-1.2-2-1.9-3.1c-0.1,0-0.3,0-0.6,0
	c-8.9,0-17.7,0-26.6,0c-1.5,0-2.5-0.6-3.1-2C5.9,31.5,5.9,31,5.9,30.6z"/>
</svg>
