<svg version="1.1" xmlns="http://www.w3.org/2000/svg" viewBox="0 0 595.28 841.89" style="fill:#D0D0D0">
		<path d="M87.27,401.191c-20.845,2.602-36.849,12.099-35.706,21.223c0.926,7.394,12.872,12.302,28.493,12.49
			l0.617-0.032l-1.692-0.2c-9.29-1.546-15.765-5.314-16.393-10.425c-1.025-8.143,13.272-16.681,31.948-18.968
			c12.814-1.608,24.376,0.142,30.675,4.049l0.732,0.489v-0.021c-3.61-5.703-14.617-9.266-28.258-9.265
			C94.349,400.53,90.852,400.743,87.27,401.191"/>
		<path d="M102.247,378.009l-0.311,0.555l1.037-1.324c6.001-7.286,12.484-11.054,17.226-9.036
			c7.575,3.213,7.797,19.872,0.46,37.164c-5.023,11.908-12.313,21.045-18.837,24.559l-0.805,0.373h0.014
			c8.389-0.33,19.636-12.24,26.805-29.182c8.167-19.366,7.935-37.96-0.537-41.535c-0.96-0.408-1.984-0.605-3.059-0.605
			C117.621,358.978,109.109,366.45,102.247,378.009"/>
		<path d="M120.659,405.368c-0.225,0.534-0.454,1.061-0.688,1.583c1.551,0.513,2.957,1.108,4.199,1.775l0.368-0.684
			c-1.016-1.034-2.299-1.976-3.817-2.82L120.659,405.368z"/>
		<path d="M97.143,401.02c-3.894,7.406,0.813,23.095,11.874,37.754c12.676,16.781,28.919,25.864,36.269,20.324
			c5.92-4.491,4.189-17.305-3.47-30.924l-0.295-0.531l0.636,1.584c3.318,8.817,3.292,16.31-0.807,19.374
			c-6.562,4.979-21.09-3.156-32.43-18.166c-7.797-10.299-12.064-21.149-11.831-28.579l0.073-0.861L97.143,401.02z"/>
		<path id="SVGID_9_" d="M97.143,401.02c-0.614,1.17-1.015,2.549-1.209,4.096c0.434-0.045,0.867-0.089,1.298-0.128
			c-0.126-1.098-0.174-2.145-0.143-3.132l0.073-0.861L97.143,401.02z"/>
		<path id="SVGID_11_" d="M102.829,429.343l0.36,0.634c1.333-0.335,2.717-0.921,4.128-1.737c-0.349-0.497-0.692-0.992-1.025-1.492
			C105.13,427.767,103.97,428.637,102.829,429.343"/>
	<path d="M174.689,424.688l0.403-0.398h2.44l0.402,0.398
		c0.164,4.255,0.389,6.854,0.672,7.802s1.18,1.945,2.693,2.99c1.511,1.051,3.522,1.903,6.03,2.571
		c2.512,0.66,5.047,0.995,7.606,0.995c3.524,0,6.689-0.646,9.499-1.943c2.807-1.296,4.995-3.201,6.556-5.71
		c1.561-2.509,2.341-5.325,2.341-8.451c0-2.191-0.373-4.104-1.121-5.734c-0.747-1.627-1.793-2.933-3.14-3.913
		c-1.347-0.981-2.882-1.71-4.61-2.193c-1.732-0.483-4.309-1.005-7.733-1.572c-3.322-0.533-5.924-1.013-7.801-1.445
		c-1.88-0.432-3.745-1.096-5.608-1.996c-1.862-0.897-3.416-2.037-4.664-3.413c-1.245-1.379-2.245-3.074-2.992-5.086
		c-0.748-2.01-1.121-4.163-1.121-6.457c0-6.215,2.16-11.312,6.483-15.283c4.319-3.972,10.121-5.957,17.402-5.957
		c2.891,0,6.041,0.355,9.447,1.07c3.407,0.716,6.508,1.773,9.3,3.166l0.347,0.6c-0.729,3.059-1.179,7.412-1.346,13.064l-0.446,0.399
		h-2.597l-0.394-0.349c-0.069-3.989-0.167-6.501-0.302-7.532c-0.134-1.027-1.644-2.308-4.538-3.837
		c-2.893-1.528-6.033-2.294-9.424-2.294c-2.823,0-5.467,0.566-7.927,1.695c-2.462,1.129-4.32,2.908-5.583,5.337
		c-1.264,2.425-1.896,4.901-1.896,7.427c0,1.96,0.382,3.699,1.147,5.209c0.763,1.513,1.754,2.712,2.966,3.59
		c1.213,0.883,2.625,1.539,4.241,1.971c1.611,0.433,4.562,0.963,8.85,1.594c5.881,0.831,10.16,1.837,12.836,3.017
		c2.678,1.183,4.821,3.052,6.432,5.612c1.612,2.559,2.417,5.648,2.417,9.271c0,7.083-2.882,12.981-8.65,17.7
		c-5.764,4.724-12.752,7.082-20.963,7.082c-6.883,0-12.916-1.229-18.101-3.69l-0.297-0.647
		C174.275,437.252,174.526,432.367,174.689,424.688"/>
	<path d="M227.744,419.004c0-3.957,0.813-7.772,2.439-11.443
		c1.63-3.673,4.466-6.85,8.502-9.525c4.041-2.676,8.836-4.011,14.386-4.011c6.981,0,12.665,2.2,17.051,6.603
		c4.389,4.403,6.581,10.067,6.581,16.978c0,7.612-2.52,13.877-7.554,18.796c-5.035,4.923-11.109,7.38-18.223,7.38
		c-4.654,0-8.807-1.255-12.466-3.765c-3.656-2.508-6.356-5.576-8.102-9.197C228.615,427.198,227.744,423.258,227.744,419.004
		 M237.164,415.563c0,4.654,0.599,8.818,1.797,12.492c1.198,3.674,3.093,6.62,5.685,8.85c2.592,2.226,5.55,3.34,8.872,3.34
		c3.923,0,7.166-1.554,9.725-4.661c2.559-3.111,3.837-7.786,3.837-14.038c0-7.078-1.387-12.878-4.164-17.398
		c-2.773-4.519-6.77-6.781-11.99-6.781c-4.32,0-7.696,1.561-10.12,4.686C238.376,405.173,237.164,409.678,237.164,415.563"/>
	<path d="M308.814,439.296l0.398,0.399v2.095l-0.398,0.447
		c-1.03,0.003-2.977-0.066-5.834-0.197c-2.591-0.135-5.268-0.204-8.026-0.204c-3.59,0-7.597,0.135-12.019,0.401l-0.396-0.447v-2.095
		l0.396-0.399c3.224-0.2,5.054-0.349,5.485-0.447c0.432-0.101,0.799-0.311,1.1-0.624c0.298-0.315,0.505-0.799,0.621-1.444
		c0.116-0.649,0.251-2.795,0.4-6.436c0.148-3.638,0.224-6.389,0.224-8.252v-19.244l-6.432,0.349l-0.45-0.399v-1.245l0.352-0.501
		l6.53-3.34v-2.991c0-3.325,0.149-5.841,0.447-7.555c0.301-1.713,0.857-3.288,1.674-4.737c0.813-1.445,2.232-3.274,4.261-5.485
		c2.025-2.21,3.804-4.022,5.332-5.434c1.533-1.412,2.86-2.36,3.99-2.842c1.13-0.48,2.461-0.722,3.988-0.722
		c1.265,0,2.629,0.25,4.089,0.747l-0.048,8.178l-1.146,0.447c-1.863-1.659-4.023-2.49-6.483-2.49c-1.729,0-3.224,0.356-4.487,1.071
		c-1.263,0.715-2.127,1.877-2.592,3.488c-0.464,1.612-0.696,4.28-0.696,8.005v10.32h5.332c2.759,0,5.368-0.098,7.83-0.298
		l0.447,0.545l-0.897,4.388l-0.45,0.501c-0.995-0.036-1.645-0.05-1.942-0.05l-6.482-0.051h-3.837v20.093
		c0,1.063,0.072,3.499,0.221,7.307c0.151,3.805,0.294,6.04,0.425,6.705c0.134,0.664,0.356,1.147,0.672,1.445
		c0.316,0.301,0.831,0.515,1.546,0.649C302.672,439.079,304.959,439.195,308.814,439.296"/>
	<path d="M316.394,402.698v-1.296l0.35-0.498
		c3.125-1.165,5.651-2.243,7.58-3.241c0-8.676-0.099-13.725-0.298-15.155c3.423-1.199,6.232-2.476,8.426-3.841l1.197,0.998
		c-0.334,2.095-0.733,8.178-1.197,18.248c1.662,0.033,3.455,0.047,5.382,0.047c3.925,0,6.734-0.097,8.43-0.297l0.35,0.352
		l-0.948,4.186l-0.399,0.449c-1.695-0.032-3.572-0.05-5.634-0.05c-1.863,0-4.255,0.018-7.18,0.05l-0.299,20.293
		c-0.003,4.687,0.105,7.754,0.322,9.198c0.216,1.445,0.814,2.578,1.794,3.392c0.98,0.812,2.436,1.219,4.364,1.219
		c2.229,0,4.29-0.58,6.182-1.742l1.197,1.792c-0.799,0.567-2.707,2.229-5.734,4.989c-1.729,0.794-3.489,1.198-5.286,1.198
		c-7.479,0-11.217-3.627-11.217-10.873c0-2.657,0.065-4.918,0.199-6.781c0.033-0.563,0.052-1.146,0.052-1.742v-20.695h-2.044
		c-1.496,0-3.209,0.069-5.137,0.203L316.394,402.698z"/>
	<path d="M364.461,394.323l0.947,0.646
		c-0.2,2.229-0.334,5.155-0.4,8.778c2.658-2.192,5.186-4.421,7.58-6.68c0.698-0.631,1.354-1.099,1.968-1.397
		c0.617-0.302,1.638-0.613,3.067-0.947s2.894-0.498,4.386-0.498c2.53,0,4.98,0.513,7.358,1.544c2.374,1.03,4.17,2.25,5.383,3.666
		c1.213,1.412,2.052,3.082,2.516,5.009c0.469,1.928,0.701,4.305,0.701,7.129v8.779c0,0.562,0.083,4.7,0.246,12.415
		c0.069,3.158,0.418,5.035,1.049,5.634c0.632,0.599,2.694,0.896,6.183,0.896l0.398,0.399v2.141l-0.398,0.401
		c-4.223-0.267-7.078-0.401-8.573-0.401c-0.865,0-3.293,0.135-7.283,0.401l-0.599-0.549c0.436-4.32,0.649-9.953,0.649-16.901v-6.531
		c0-3.924-0.091-6.749-0.271-8.476c-0.186-1.729-0.741-3.3-1.674-4.712c-0.93-1.413-2.175-2.509-3.739-3.293
		c-1.562-0.78-3.423-1.169-5.583-1.169c-1.729,0-3.21,0.174-4.437,0.523c-1.23,0.349-2.608,1.064-4.142,2.145
		c-1.528,1.079-2.657,2.091-3.387,3.039c-0.733,0.947-1.172,1.83-1.321,2.642c-0.153,0.813-0.225,2.552-0.225,5.209v8.677
		c0,0.732,0.064,3.085,0.199,7.058c0.132,3.971,0.271,6.29,0.422,6.955c0.151,0.663,0.377,1.146,0.675,1.443
		c0.297,0.302,0.665,0.495,1.095,0.574c0.433,0.083,2.23,0.225,5.384,0.425l0.451,0.399v2.095l-0.399,0.447
		c-4.156-0.267-8.16-0.401-12.016-0.401c-3.823,0-7.812,0.135-11.965,0.401l-0.45-0.447v-2.095l0.45-0.399
		c3.224-0.2,5.042-0.349,5.46-0.447c0.413-0.102,0.78-0.312,1.096-0.624c0.315-0.315,0.53-0.799,0.646-1.444
		c0.116-0.65,0.251-2.795,0.398-6.437c0.149-3.637,0.226-6.389,0.226-8.251v-9.823c0-1.329-0.065-3.141-0.199-5.434
		c-0.131-2.291-0.24-3.704-0.323-4.237c-0.084-0.534-0.342-0.922-0.772-1.173c-0.433-0.247-1.297-0.373-2.593-0.373l-4.188-0.051
		l-0.451-0.396v-2.145l0.399-0.4C354.753,397.299,360.104,396.052,364.461,394.323"/>
	<path d="M450.915,434.508l-1.594,3.59
		c-3.46,2.229-6.541,3.675-9.249,4.339c-2.708,0.668-5.129,0.997-7.256,0.997c-3.99,0-7.77-0.78-11.342-2.342
		c-3.575-1.563-6.483-4.206-8.727-7.927c-2.243-3.725-3.365-8.212-3.365-13.465c0-3.488,0.433-6.639,1.296-9.445
		c0.864-2.81,1.772-4.897,2.718-6.262c0.948-1.361,2.55-2.871,4.812-4.534c2.262-1.662,4.653-2.992,7.18-3.99
		c2.526-0.998,5.252-1.495,8.18-1.495c3.984,0,7.503,0.936,10.541,2.816c3.043,1.877,5.181,4.277,6.406,7.203
		c1.231,2.926,1.846,6.034,1.85,9.325c-0.004,1.031-0.053,2.026-0.154,2.992l-0.547,0.548c-2.259,0.497-5.3,0.832-9.123,0.998
		c-3.822,0.167-6.349,0.25-7.58,0.25h-16.005c0.065,6.88,1.794,11.947,5.184,15.208c3.392,3.257,7.547,4.887,12.467,4.887
		c2.326,0,4.563-0.399,6.709-1.199c2.141-0.798,4.409-1.909,6.805-3.339L450.915,434.508z M418.955,414.118
		c0.6,0.099,2.9,0.215,6.905,0.349c4.007,0.135,6.973,0.199,8.899,0.199c4.622,0,7.433-0.083,8.426-0.25
		c0.033-0.795,0.053-1.412,0.053-1.844c0-5.151-1.051-8.985-3.142-11.493c-2.094-2.508-4.955-3.765-8.578-3.765
		c-3.952,0-7.034,1.413-9.244,4.241C420.059,404.377,418.955,408.567,418.955,414.118"/>
	<path d="M458.045,402.698v-1.296l0.349-0.498
		c3.126-1.165,5.651-2.243,7.578-3.241c0-8.676-0.098-13.725-0.297-15.155c3.423-1.199,6.233-2.476,8.427-3.841l1.196,0.998
		c-0.334,2.095-0.732,8.178-1.196,18.248c1.661,0.033,3.454,0.047,5.383,0.047c3.924,0,6.733-0.097,8.429-0.297l0.349,0.352
		l-0.947,4.186l-0.399,0.449c-1.696-0.032-3.572-0.05-5.634-0.05c-1.863,0-4.255,0.018-7.18,0.05l-0.299,20.293
		c-0.004,4.687,0.105,7.754,0.323,9.198c0.214,1.445,0.813,2.578,1.793,3.392c0.98,0.812,2.436,1.219,4.364,1.219
		c2.229,0,4.29-0.58,6.181-1.742l1.199,1.792c-0.799,0.567-2.709,2.229-5.736,4.989c-1.728,0.794-3.487,1.198-5.286,1.198
		c-7.478,0-11.217-3.627-11.217-10.873c0-2.657,0.066-4.918,0.201-6.781c0.031-0.563,0.05-1.146,0.05-1.742v-20.695h-2.044
		c-1.496,0-3.209,0.069-5.137,0.203L458.045,402.698z"/>
	<path d="M499.627,408.034l-1.941-0.497l-0.399-0.501v-6.183
		c5.917-4.385,11.667-6.581,17.25-6.581c3.822,0,6.998,0.715,9.526,2.145c2.521,1.427,4.351,3.217,5.48,5.358
		c1.132,2.146,1.695,4.647,1.695,7.507l-0.247,10.02v14.856c0,2.029,0.142,3.258,0.421,3.692c0.283,0.432,0.61,0.723,0.973,0.872
		c0.367,0.152,1.05,0.275,2.044,0.373l2.843,0.251l0.398,0.45v1.993l-0.398,0.399c-2.424-0.2-4.687-0.302-6.781-0.302
		c-1.992,0-4.385,0.102-7.181,0.302l-0.747-0.701l0.203-8.025l-10.872,8.475c-1.83,0.763-3.822,1.148-5.982,1.148
		c-2.661,0-4.944-0.483-6.857-1.449c-1.909-0.961-3.372-2.308-4.386-4.036c-1.016-1.728-1.521-3.823-1.521-6.284
		c0-4.886,1.527-8.698,4.585-11.442c3.061-2.741,11.401-5.078,25.033-7.006c0-4.918-1.101-8.382-3.293-10.393
		c-2.196-2.011-5.136-3.017-8.824-3.017c-1.929,0-3.682,0.28-5.26,0.846c-1.579,0.567-2.487,1.024-2.72,1.373
		c-0.231,0.347-1.129,2.384-2.692,6.105L499.627,408.034z M522.766,415.911c-9.312,1.565-15.108,3.241-17.402,5.039
		c-2.295,1.792-3.441,4.567-3.441,8.323c0,5.188,2.576,7.78,7.728,7.78c4.422,0,8.793-2.56,13.116-7.678V415.911z"/>
</svg>
