<svg xmlns="http://www.w3.org/2000/svg"
     viewBox="0 0 64 64"
     version="1.1"
     style="fill:#D0D0D0">

    <path d="M55.4,31.7V56.9a4.25,4.25,0,0,1-4.5,4.5H13.4a4.26,4.26,0,0,1-4.6-4.6v-40a4.18,4.18,0,0,1,1.4-3.3c3.4-3.3,6.7-6.7,10-10a4.45,4.45,0,0,1,3.3-1.3H50.9a4.25,4.25,0,0,1,4.5,4.5ZM23.7,6.2a.35.35,0,0,1-.1.2v5.9a4.25,4.25,0,0,1-4.5,4.5H13V55.7c0,1.1.3,1.4,1.4,1.4H49.6c1.3,0,1.6-.3,1.6-1.6V7.6c0-1.1-.3-1.5-1.4-1.5H24.4A1.48,1.48,0,0,1,23.7,6.2Z"/>
    <path d="M24.75,50.2a5.73,5.73,0,0,0,2.49.62c1,0,1.58-.43,1.58-1.08s-.47-1-1.67-1.4c-1.65-.57-2.73-1.49-2.73-2.93,0-1.7,1.42-3,3.76-3a6.08,6.08,0,0,1,2.54.5l-.5,1.81a4.73,4.73,0,0,0-2.08-.47c-1,0-1.44.44-1.44,1s.56.91,1.84,1.4c1.75.65,2.58,1.56,2.58,3,0,1.67-1.28,3.08-4,3.08a6.5,6.5,0,0,1-2.82-.6Z"/>
    <path d="M32.63,42.71a19.84,19.84,0,0,1,3-.21,5.07,5.07,0,0,1,3.21.78,2.52,2.52,0,0,1,.91,2.08A2.64,2.64,0,0,1,38,47.81v0a2.51,2.51,0,0,1,1.33,1.86c.31,1.12.62,2.42.81,2.8h-2.3a12.46,12.46,0,0,1-.69-2.31c-.27-1.24-.69-1.58-1.61-1.59h-.68v3.91H32.63ZM34.86,47h.88c1.12,0,1.78-.56,1.78-1.43s-.62-1.37-1.65-1.39a5.64,5.64,0,0,0-1,.07Z"/>
    <rect x="22.35" y="27.47" width="22.6" height="2.5"/>
    <rect x="18.79" y="35.86" width="9.32" height="1.03" transform="translate(-10.18 9.13) rotate(-18.18)"/>
    <rect x="30.93" y="32.26" width="1.03" height="8.57" transform="translate(-15.35 48.12) rotate(-63.18)"/>
    <rect x="22.35" y="20.15" width="22.6" height="2.5"/>
    <circle cx="19.56" cy="21.4" r="1.78"/>
    <circle cx="19.56" cy="28.72" r="1.78"/>
    <circle cx="19.25" cy="37.84" r="1.47"/>
    <circle cx="28.12" cy="34.91" r="1.47"/>
    <rect x="34.16" y="35.86" width="9.32" height="1.03" transform="translate(-9.41 13.93) rotate(-18.18)"/>
    <circle cx="34.61" cy="37.84" r="1.47"/>
    <circle cx="43.48" cy="34.91" r="1.47"/>
</svg>