<svg version="1.1" xmlns="http://www.w3.org/2000/svg" viewBox="0 0 64 64" style="fill:#E51B48">
<path d="M27.6,4c1.5,0.5,2.1,1.7,2.1,3.2c0,6.5,0,12.9,0,19.4c0,2-1,3-3,3c-6.5,0-12.9,0-19.4,0
	c-1.6,0-2.7-0.5-3.2-2.1c0-7.2,0-14.3,0-21.5c0.3-1.1,1-1.7,2.1-2.1C13.3,4,20.5,4,27.6,4z M25,25c0-5.4,0-10.8,0-16.2
	c-5.4,0-10.8,0-16.2,0c0,5.4,0,10.8,0,16.2C14.2,25,19.6,25,25,25z"/>
<path d="M4,36.4c0.5-1.5,1.6-2.1,3.2-2.1c6.5,0,13,0,19.4,0c1.9,0,3,1,3,3c0,6.5,0,13,0,19.4c0,1.6-0.5,2.7-2.1,3.2
	c-7.2,0-14.3,0-21.5,0c-1.1-0.3-1.8-1-2.1-2.1C4,50.7,4,43.5,4,36.4z M8.7,55.2c5.5,0,10.8,0,16.2,0c0-5.4,0-10.8,0-16.2
	c-5.4,0-10.8,0-16.2,0C8.7,44.4,8.7,49.8,8.7,55.2z"/>
<path d="M60,13.7c-0.5,1.5-1.7,2.1-3.2,2.1c-6.5,0-12.9,0-19.4,0c-2,0-3-1-3-3c0-1.8,0-3.6,0-5.4
	c-0.1-1.6,0.5-2.7,2.1-3.2c7.2,0,14.3,0,21.5,0c1.1,0.3,1.7,1,2.1,2.1C60,8.6,60,11.1,60,13.7z M36.7,13.3c7,0,13.9,0,20.9,0
	c0-2.3,0-4.6,0-6.9c-7,0-13.9,0-20.9,0C36.7,8.7,36.7,11,36.7,13.3z"/>
<path d="M60,27.6c-0.5,1.5-1.7,2.1-3.2,2.1c-6.5,0-12.9,0-19.4,0c-2,0-3-1-3-3c0-1.9,0-3.9,0-5.8
	c0-1.7,1.1-2.8,2.8-2.8c6.5,0,13.1,0,19.6,0c1.8,0,2.4,0.4,3.2,2.1C60,22.6,60,25.1,60,27.6z M36.7,20.4c0,2.3,0,4.6,0,6.9
	c7,0,13.9,0,20.9,0c0-2.3,0-4.6,0-6.9C50.6,20.4,43.7,20.4,36.7,20.4z"/>
<path d="M60,43.9c-0.3,1-0.9,1.8-2,2C57.7,46,57.4,46,57.2,46c-6.7,0-13.4,0-20.1,0c-1.7,0-2.8-1.1-2.8-2.8
	c0-2.1,0-4.1,0-6.2c0-1.6,1.1-2.7,2.7-2.7c6.7,0,13.4,0,20.1,0c1.4,0,2.3,0.8,2.8,2.1C60,38.9,60,41.4,60,43.9z M36.7,43.6
	c7,0,14,0,20.9,0c0-2.3,0-4.6,0-6.9c-7,0-14,0-20.9,0C36.7,39,36.7,41.3,36.7,43.6z"/>
<path d="M36.4,60c-1.5-0.5-2.1-1.6-2.1-3.2c0.1-1.9,0-3.7,0-5.6c0-1.8,1.1-2.8,2.9-2.8c6.5,0,13,0,19.5,0
	c1.6,0,2.7,0.5,3.2,2.1c0,2.5,0,5,0,7.5c-0.3,1.1-1,1.7-2.1,2.1C50.7,60,43.5,60,36.4,60z M57.6,50.7c-7,0-13.9,0-20.9,0
	c0,2.3,0,4.6,0,6.9c7,0,13.9,0,20.9,0C57.6,55.3,57.6,53,57.6,50.7z"/>
</svg>
