<svg version="1.1" xmlns="http://www.w3.org/2000/svg" viewBox="0 0 64 64" style="fill:#E51B48">
	<path d="M33.4,62.5c-1.1-0.2-1.6-1-1.8-2.1c-0.2-0.9-0.3-1.7-0.5-2.6c-0.1-0.4-0.2-0.6-0.7-0.7
		c-2.7-0.4-5.5-0.8-8.1-1.8c-8.2-3-13.8-8.6-16.7-16.9c-1.6-4.6-2.2-9.2-1.3-14c0.8-4.3,2.6-8.1,5.2-11.6c2.5-3.4,5.6-6.3,9.4-8.3
		c3.5-1.9,7.4-2.7,11.4-3c0.5,0,0.9-0.1,1.4-0.1c0.4,0,0.9,0,1.3,0c1.2,0.1,2.4,0.2,3.5,0.4c0.6,0.1,1.2,0.2,1.7,0.3
		c1.1,0.3,1.7,1.3,1.5,2.3c-0.2,1.1-1.2,1.7-2.3,1.5c-2.4-0.5-4.8-0.8-7.2-0.6c-5.1,0.4-9.6,2.3-13.6,5.5c-4.4,3.6-7.2,8.2-8.3,13.8
		C5.9,37.6,14.2,50.1,27,52.6c1,0.2,2,0.3,3.1,0.5c-0.2-1.2-0.4-2.3-0.7-3.4c-0.2-0.8-0.2-1.6,0.5-2.2c0.7-0.6,1.5-0.6,2.3-0.3
		c3.4,1.2,6.8,2.4,10.3,3.6c1.9,0.7,2.3,2.3,0.8,3.6c-2.7,2.4-5.5,4.9-8.3,7.3c-0.4,0.3-0.9,0.5-1.4,0.8
		C33.6,62.5,33.5,62.5,33.4,62.5z"/>
	<path d="M27.1,29c0-2.6,2.6-4.5,5.1-3.6c0.5,0.2,0.9,0.2,1.4,0c2-0.9,4-1.8,6.1-2.8c1-0.4,1.9-0.9,2.9-1.3
		c0.8-0.3,1.4,0.1,1.5,0.9c0.1,0.7-0.3,1-0.8,1.4c-1.9,1.2-3.8,2.4-5.6,3.7c-0.6,0.4-1.2,0.9-1.7,1.3c-0.6,0.5-1.1,1-1.4,1.9
		c-0.6,1.8-2.5,2.7-4.4,2.4C28.4,32.5,27.1,30.9,27.1,29z"/>
	<path d="M54,36.8c1.2,0.4,2.4,0.8,3.5,1.4c0.6,0.3,0.8,1.1,0.5,1.8c-0.3,0.6-0.9,1.1-1.6,0.9
		c-1.1-0.3-2.2-0.6-3.2-1.1c-0.7-0.3-0.9-1-0.7-1.7C52.7,37.4,53.2,36.9,54,36.8z"/>
	<path d="M54.6,23.8c-0.7,0-1.3-0.4-1.5-1c-0.2-0.7,0-1.4,0.6-1.7c1.1-0.5,2.2-0.9,3.4-1.3c0.6-0.2,1.3,0.3,1.6,0.9
		c0.3,0.6,0.2,1.4-0.4,1.7c-1.2,0.6-2.4,1.1-3.6,1.6C54.6,23.9,54.6,23.9,54.6,23.8z"/>
	<path d="M47.9,6.9c0,0.1,0,0.2-0.1,0.3c-0.6,1.1-1.2,2.2-1.9,3.2C45.5,11,44.6,11,44,10.6c-0.6-0.4-0.9-1.2-0.6-1.9
		c0.5-0.9,1-1.9,1.6-2.7c0.4-0.6,1.1-0.7,1.8-0.5C47.5,5.7,47.9,6.2,47.9,6.9z"/>
	<path d="M54.6,13.4c-0.1,0.2-0.3,0.7-0.6,1c-0.6,0.6-1.4,1.2-2.1,1.8c-0.8,0.6-1.7,0.5-2.3-0.2
		c-0.6-0.7-0.4-1.6,0.3-2.3c0.7-0.6,1.3-1.2,2-1.7c0.5-0.4,1.1-0.5,1.7-0.2C54.3,12.1,54.6,12.5,54.6,13.4z"/>
	<path d="M51.8,48.8c-0.2-0.1-0.6-0.2-0.9-0.4c-0.8-0.5-1.5-1.1-2.2-1.7c-0.6-0.5-0.7-1.4-0.3-2c0.4-0.6,1.3-1,2-0.5
		c1,0.6,1.9,1.4,2.7,2.1c0.5,0.4,0.5,1,0.2,1.6C53,48.4,52.6,48.7,51.8,48.8z"/>
	<path  d="M57.1,28.8c0.5,0,1,0,1.4,0c0.8,0.1,1.4,0.6,1.4,1.4c0,0.8-0.5,1.5-1.3,1.6c-1,0.1-2.1,0.1-3.1,0.1
		c-0.9,0-1.4-0.7-1.4-1.6c0-0.8,0.6-1.5,1.5-1.5C56.1,28.8,56.6,28.9,57.1,28.8C57.1,28.9,57.1,28.8,57.1,28.8z"/>
</svg>
