<svg version="1.1" xmlns="http://www.w3.org/2000/svg" viewBox="-447 249 64 64" style="fill:#E51B48">
	<path d="M-388.2,301.9c-17.8,0-35.5,0-53.3,0c-1.4-0.5-1.6-0.9-1.6-2.4c0-11.5,0-23,0-34.5c0-1.2,0.3-2.1,1.6-2.4c17.8,0,35.7,0,53.5,0c1.2,0.4,1.6,1.2,1.5,2.4c0,11.5,0,23.1,0,34.6C-386.6,301-386.8,301.4-388.2,301.9z M-414.9,300.1c0-12,0-23.9,0-35.8c-8.9,0-17.7,0-26.5,0c0,11.9,0,23.9,0,35.8C-432.6,300.1-423.8,300.1-414.9,300.1z"/>
	<path d="M-442.7,280.9c2.8,0,16.3,0,19,0c0-1.6,0-3.2,0-4.7c2.1,2.1,4.3,4.4,6.4,6.4c-2.1,2.1-4.2,4.2-6.4,6.4c0-1.6,0-3.2,0-4.8c-2.8,0-16.3,0-19,0"/>
</svg>
