<svg version="1.1" xmlns="http://www.w3.org/2000/svg" viewBox="0 0 64 64" style="fill:#E51B48">
	<path d="M32,9.3c0-3.7,0-3.6,0-7.3c-5.5,5.5-7.2,7.2-12.7,12.7c5.7,5.4,6.6,6.1,12.6,11.4c0-5,0-5,0-10
		c3.1,0,5.9,0.6,8.5,1.8c11.9,5.4,15.4,20.6,7.2,30.8c-7.8,9.6-22.4,10.1-30.6,0.7c-5.5-6.3-6.5-13.5-3.4-21.3
		c0.2-0.5,0.2-0.8-0.2-1.2c-1.5-1.4-2.9-2.9-4.4-4.4c-2.2,3.8-3.4,7.7-3.7,12C5,40.7,6.6,46.3,10,51.3c7.2,10.3,20.3,14.3,32,9.6
		c11.4-4.5,18.3-16.4,16.6-28.6C56.8,20,46.3,9.4,32,9.3z"/>
<circle cx="32.5" cy="36.1" r="5.2"/>
</svg>
