<svg version="1.1" xmlns="http://www.w3.org/2000/svg" viewBox="0 0 64 64" style="fill:#E51B48">
<path d="M58.1,19c0,2.3,0,4.5,0,6.6c0,7,0,14,0,20.9c0,0.6-0.1,0.9-0.7,1.2c-7.7,4.4-15.4,8.9-23.2,13.3
	c-0.2,0.1-0.5,0.2-0.9,0.4c0-0.5,0-1,0-1.4c0-8.8,0-17.5,0-26.3c0-0.5,0.1-0.8,0.6-1.1c7.9-4.5,15.7-9,23.5-13.5
	C57.6,19.2,57.8,19.2,58.1,19z"/>
<path d="M30.6,61.6c-0.4-0.2-0.6-0.3-0.9-0.5c-7.7-4.4-15.3-8.9-23-13.3c-0.6-0.3-0.8-0.7-0.8-1.3
	C6,37.7,6,28.8,6,20c0-0.3,0-0.6,0-0.9c0.3,0.1,0.5,0.2,0.7,0.3c7.8,4.5,15.6,9,23.4,13.5c0.4,0.2,0.6,0.5,0.6,1c0,9,0,18,0,27
	C30.6,61.1,30.6,61.3,30.6,61.6z"/>
<path d="M56.6,16.6c-4.9,2.8-9.7,5.6-14.5,8.4c-3.2,1.8-6.3,3.6-9.5,5.5c-0.4,0.2-0.7,0.3-1.2,0
	c-7.9-4.6-15.8-9.1-23.6-13.7c-0.1-0.1-0.2-0.1-0.4-0.3c0.2-0.2,0.4-0.3,0.6-0.4c7.8-4.5,15.6-9,23.4-13.5c0.4-0.2,0.6-0.3,1.1,0
	c7.9,4.6,15.7,9.1,23.6,13.6C56.3,16.3,56.4,16.4,56.6,16.6z"/>
</svg>
