
<svg
   xmlns="http://www.w3.org/2000/svg"
   style="fill:#d0d0d0"
   viewBox="0 0 64.000001 64.000001"
   version="1.1">
  
  <path
     id="path4170"
     d="M 3.3457031,0.85351562 A 1.250125,1.250125 0 0 0 2.0996094,2.1054688 L 1.9023438,19.644531 a 1.250125,1.250125 0 1 0 2.5,0.0293 L 4.5996094,2.1347656 A 1.250125,1.250125 0 0 0 3.3457031,0.85351562 Z"/>
  <path
     id="path4172"
     d="m 3.1523438,12.398438 a 1.250125,1.250125 0 1 0 0,2.5 l 43.5527342,0 a 1.250125,1.250125 0 1 0 0,-2.5 l -43.5527342,0 z"/>
  <path
     id="path4174"
     d="m 3.546875,6.4375 a 1.250125,1.250125 0 1 0 0,2.5 l 56.953125,0 a 1.250125,1.250125 0 1 0 0,-2.5 l -56.953125,0 z"/>
 <path
     id="path4176"
     d="m 51.162109,21.523438 a 1.250125,1.250125 0 0 0 -0.861328,0.375 L 11.939453,59.900391 a 1.2505723,1.2505723 0 1 0 1.759766,1.777343 L 52.060547,23.673828 a 1.250125,1.250125 0 0 0 -0.898438,-2.15039 z"/>
 <path
     id="path4178"
     d="M 12.720703,20.988281 A 1.250125,1.250125 0 0 0 11.84375,23.132812 L 50.382812,61.849609 A 1.2505616,1.2505616 0 1 0 52.15625,60.085938 L 13.617188,21.369141 a 1.250125,1.250125 0 0 0 -0.896485,-0.38086 z" />
</svg>
