<svg version="1.1" xmlns="http://www.w3.org/2000/svg" viewBox="-447 249 64 64" style="fill:#E51B48">
<path d="M-415.1,303.7c-6.2,0-12.4,0-18.6,0c-2.3,0-4.3-1.6-4.8-3.9c-0.1-0.4-0.2-0.8-0.2-1.3c0-11.7,0-23.3,0-35
	c0-3,2.2-5.3,5.1-5.3c12.4,0,24.8,0,37.3,0c2.8,0,5,2.3,5,5.1c0,11.7,0,23.4,0,35.2c0,2.9-2.2,5.1-5,5.2
	C-402.6,303.7-408.8,303.7-415.1,303.7z M-415,300.7c6.2,0,12.4,0,18.6,0c1.3,0,2.1-0.9,2.1-2.1c0-11.7,0-23.4,0-35.1
	c0-1.3-0.8-2.1-2.1-2.1c-12.4,0-24.8,0-37.3,0c-1.2,0-2.1,0.9-2.1,2.2c0,11.6,0,23.3,0,34.9c0,1.3,1,2.3,2.2,2.3
	C-427.4,300.6-421.2,300.7-415,300.7z"/>
</svg>
