<svg version="1.1" xmlns="http://www.w3.org/2000/svg" viewBox="0 0 64 64" style="fill:#E51B48">
		<path id="XMLID_11_" d="M0.9,32.3c0-0.1,0-0.3,0-0.4C0.9,31.6,1,31.3,1,31c0-2.2,0.3-4.4,0.9-6.6c1.8-7.1,5.7-12.9,11.5-17.3
			c4.6-3.5,9.7-5.5,15.5-6.1c1-0.1,2.1-0.2,3.1-0.2c0.1,0,0.3,0,0.4,0c0.1,0,0.3,0.1,0.4,0.1c1.5,0.1,3.1,0.2,4.6,0.4
			c6.1,1,11.4,3.6,15.9,7.9c8,7.7,11.2,17,9.5,28c-1.1,7.3-4.6,13.4-10.1,18.2c-7.7,6.7-16.8,9.1-26.8,7.1
			c-7.4-1.4-13.4-5.3-18.1-11.1c-3.8-4.7-6-10.1-6.6-16.2C1,34.2,1,33.2,0.9,32.3z M48.5,12.6c-9.7-8.5-25.6-8.5-35.4,2.3
			c-9.5,10.5-7.9,25.4-0.5,33.5C24.6,36.5,36.5,24.5,48.5,12.6z"/>
</svg>
