<svg version="1.1" xmlns="http://www.w3.org/2000/svg" viewBox="0 0 64 64" style="fill:#E51B48">
		<path d="M57.9,62.3c-0.1,0-0.1,0-0.2,0c-0.1-0.2-0.3-0.4-0.4-0.6c-8.3-8.3-16.5-16.6-24.8-24.8
			c-0.2-0.2-0.3-0.3-0.5-0.5c-0.2,0.1-0.3,0.2-0.4,0.3c-8.4,8.3-16.7,16.7-25.1,25.1c-0.1,0.1-0.2,0.3-0.3,0.4c-0.1,0-0.1,0-0.2,0
			c-1.5-1.5-2.9-2.9-4.4-4.4c0-0.1,0-0.1,0-0.2c0.2-0.2,0.4-0.3,0.6-0.5c8.2-8.2,16.5-16.5,24.7-24.7c0.2-0.2,0.3-0.4,0.6-0.6
			c-0.2-0.2-0.3-0.3-0.5-0.5C18.8,23.2,10.5,14.9,2.2,6.6C2,6.4,1.8,6.3,1.7,6.2c0-0.1,0-0.1,0-0.2C3.1,4.6,4.6,3.1,6,1.7
			c0.1,0,0.1,0,0.2,0c0.2,0.2,0.3,0.4,0.5,0.6c8.2,8.2,16.5,16.5,24.7,24.7c0.2,0.2,0.4,0.3,0.6,0.6c0.2-0.2,0.3-0.3,0.5-0.5
			c8.3-8.3,16.6-16.6,24.9-24.9c0.2-0.2,0.3-0.3,0.4-0.5c0.1,0,0.1,0,0.2,0c1.5,1.5,2.9,2.9,4.4,4.5c-8.7,8.7-17.3,17.3-26,26
			C45,40.7,53.6,49.3,62.3,58C60.9,59.5,59.4,61,57.9,62.3z"/>
</svg>
