<svg version="1.1" xmlns="http://www.w3.org/2000/svg" viewBox="0 0 64 64" style="fill:#E51B48">
<path d="M42,46.1C29.8,55.5,14.2,51.6,6.5,42c-8.2-10.3-7.1-25,2.1-34c9.3-9,23.7-9.6,33.7-1.5c10,8.1,13,23.5,4,35.3
	c0.2,0.2,0.3,0.4,0.5,0.6c5.1,5.1,10.3,10.3,15.4,15.4c1.2,1.2,1.4,2.7,0.6,4c-1.1,1.6-3.3,1.8-4.8,0.4c-1.6-1.5-3.1-3.1-4.7-4.7
	c-3.7-3.7-7.3-7.3-11-11C42.3,46.4,42.2,46.3,42,46.1z M26.4,6.9c-10.7,0-19.3,8.6-19.3,19.3c0,10.6,8.6,19.2,19.2,19.2
	c10.7,0,19.3-8.6,19.3-19.3C45.6,15.5,37,6.9,26.4,6.9z"/>
<path d="M26.7,12.8c3,3.4,5.9,6.8,8.9,10.2c-6,0-11.9,0-17.8,0C20.7,19.5,23.7,16.2,26.7,12.8z"/>
<path d="M26.7,38.6c-3-3.4-5.9-6.8-8.9-10.2c6,0,11.9,0,17.8,0C32.6,31.8,29.6,35.2,26.7,38.6z"/>
</svg>
